<?xml version="1.0" encoding="UTF-8"?>
<svg width="765px" height="384px" viewBox="0 0 765 384" version="1.1" xmlns="http://www.w3.org/2000/svg" xmlns:xlink="http://www.w3.org/1999/xlink">
    <!-- Generator: Sketch 58 (84663) - https://sketch.com -->
    <title>Rack/GitHub</title>
    <desc>Created with Sketch.</desc>
    <defs>
        <rect id="path-1" x="0" y="0" width="765" height="380"></rect>
    </defs>
    <g id="Rack/GitHub" stroke="none" stroke-width="1" fill="none" fill-rule="evenodd">
        <mask id="mask-2" fill="white">
            <use xlink:href="#path-1"></use>
        </mask>
        <use id="bg" fill="#303030" xlink:href="#path-1"></use>
        <path d="M0,380 L0,365 L750,365 L765,365 L765,380 L750,380 L0,380 Z M352.5,367.5 C349.738576,367.5 347.5,369.738576 347.5,372.5 C347.5,375.261424 349.738576,377.5 352.5,377.5 C355.261424,377.5 357.5,375.261424 357.5,372.5 C357.5,369.738576 355.261424,367.5 352.5,367.5 Z M367.5,367.5 C364.738576,367.5 362.5,369.738576 362.5,372.5 C362.5,375.261424 364.738576,377.5 367.5,377.5 C370.261424,377.5 372.5,375.261424 372.5,372.5 C372.5,369.738576 370.261424,367.5 367.5,367.5 Z M382.5,367.5 C379.738576,367.5 377.5,369.738576 377.5,372.5 C377.5,375.261424 379.738576,377.5 382.5,377.5 C385.261424,377.5 387.5,375.261424 387.5,372.5 C387.5,369.738576 385.261424,367.5 382.5,367.5 Z M397.5,367.5 C394.738576,367.5 392.5,369.738576 392.5,372.5 C392.5,375.261424 394.738576,377.5 397.5,377.5 C400.261424,377.5 402.5,375.261424 402.5,372.5 C402.5,369.738576 400.261424,367.5 397.5,367.5 Z M412.5,367.5 C409.738576,367.5 407.5,369.738576 407.5,372.5 C407.5,375.261424 409.738576,377.5 412.5,377.5 C415.261424,377.5 417.5,375.261424 417.5,372.5 C417.5,369.738576 415.261424,367.5 412.5,367.5 Z M7.5,367.5 C4.73857625,367.5 2.5,369.738576 2.5,372.5 C2.5,375.261424 4.73857625,377.5 7.5,377.5 C10.2614237,377.5 12.5,375.261424 12.5,372.5 C12.5,369.738576 10.2614237,367.5 7.5,367.5 Z M427.5,367.5 C424.738576,367.5 422.5,369.738576 422.5,372.5 C422.5,375.261424 424.738576,377.5 427.5,377.5 C430.261424,377.5 432.5,375.261424 432.5,372.5 C432.5,369.738576 430.261424,367.5 427.5,367.5 Z M22.5,367.5 C19.7385763,367.5 17.5,369.738576 17.5,372.5 C17.5,375.261424 19.7385763,377.5 22.5,377.5 C25.2614237,377.5 27.5,375.261424 27.5,372.5 C27.5,369.738576 25.2614237,367.5 22.5,367.5 Z M442.5,367.5 C439.738576,367.5 437.5,369.738576 437.5,372.5 C437.5,375.261424 439.738576,377.5 442.5,377.5 C445.261424,377.5 447.5,375.261424 447.5,372.5 C447.5,369.738576 445.261424,367.5 442.5,367.5 Z M37.5,367.5 C34.7385763,367.5 32.5,369.738576 32.5,372.5 C32.5,375.261424 34.7385763,377.5 37.5,377.5 C40.2614237,377.5 42.5,375.261424 42.5,372.5 C42.5,369.738576 40.2614237,367.5 37.5,367.5 Z M457.5,367.5 C454.738576,367.5 452.5,369.738576 452.5,372.5 C452.5,375.261424 454.738576,377.5 457.5,377.5 C460.261424,377.5 462.5,375.261424 462.5,372.5 C462.5,369.738576 460.261424,367.5 457.5,367.5 Z M52.5,367.5 C49.7385763,367.5 47.5,369.738576 47.5,372.5 C47.5,375.261424 49.7385763,377.5 52.5,377.5 C55.2614237,377.5 57.5,375.261424 57.5,372.5 C57.5,369.738576 55.2614237,367.5 52.5,367.5 Z M472.5,367.5 C469.738576,367.5 467.5,369.738576 467.5,372.5 C467.5,375.261424 469.738576,377.5 472.5,377.5 C475.261424,377.5 477.5,375.261424 477.5,372.5 C477.5,369.738576 475.261424,367.5 472.5,367.5 Z M67.5,367.5 C64.7385763,367.5 62.5,369.738576 62.5,372.5 C62.5,375.261424 64.7385763,377.5 67.5,377.5 C70.2614237,377.5 72.5,375.261424 72.5,372.5 C72.5,369.738576 70.2614237,367.5 67.5,367.5 Z M487.5,367.5 C484.738576,367.5 482.5,369.738576 482.5,372.5 C482.5,375.261424 484.738576,377.5 487.5,377.5 C490.261424,377.5 492.5,375.261424 492.5,372.5 C492.5,369.738576 490.261424,367.5 487.5,367.5 Z M82.5,367.5 C79.7385763,367.5 77.5,369.738576 77.5,372.5 C77.5,375.261424 79.7385763,377.5 82.5,377.5 C85.2614237,377.5 87.5,375.261424 87.5,372.5 C87.5,369.738576 85.2614237,367.5 82.5,367.5 Z M502.5,367.5 C499.738576,367.5 497.5,369.738576 497.5,372.5 C497.5,375.261424 499.738576,377.5 502.5,377.5 C505.261424,377.5 507.5,375.261424 507.5,372.5 C507.5,369.738576 505.261424,367.5 502.5,367.5 Z M97.5,367.5 C94.7385763,367.5 92.5,369.738576 92.5,372.5 C92.5,375.261424 94.7385763,377.5 97.5,377.5 C100.261424,377.5 102.5,375.261424 102.5,372.5 C102.5,369.738576 100.261424,367.5 97.5,367.5 Z M517.5,367.5 C514.738576,367.5 512.5,369.738576 512.5,372.5 C512.5,375.261424 514.738576,377.5 517.5,377.5 C520.261424,377.5 522.5,375.261424 522.5,372.5 C522.5,369.738576 520.261424,367.5 517.5,367.5 Z M112.5,367.5 C109.738576,367.5 107.5,369.738576 107.5,372.5 C107.5,375.261424 109.738576,377.5 112.5,377.5 C115.261424,377.5 117.5,375.261424 117.5,372.5 C117.5,369.738576 115.261424,367.5 112.5,367.5 Z M532.5,367.5 C529.738576,367.5 527.5,369.738576 527.5,372.5 C527.5,375.261424 529.738576,377.5 532.5,377.5 C535.261424,377.5 537.5,375.261424 537.5,372.5 C537.5,369.738576 535.261424,367.5 532.5,367.5 Z M127.5,367.5 C124.738576,367.5 122.5,369.738576 122.5,372.5 C122.5,375.261424 124.738576,377.5 127.5,377.5 C130.261424,377.5 132.5,375.261424 132.5,372.5 C132.5,369.738576 130.261424,367.5 127.5,367.5 Z M547.5,367.5 C544.738576,367.5 542.5,369.738576 542.5,372.5 C542.5,375.261424 544.738576,377.5 547.5,377.5 C550.261424,377.5 552.5,375.261424 552.5,372.5 C552.5,369.738576 550.261424,367.5 547.5,367.5 Z M142.5,367.5 C139.738576,367.5 137.5,369.738576 137.5,372.5 C137.5,375.261424 139.738576,377.5 142.5,377.5 C145.261424,377.5 147.5,375.261424 147.5,372.5 C147.5,369.738576 145.261424,367.5 142.5,367.5 Z M562.5,367.5 C559.738576,367.5 557.5,369.738576 557.5,372.5 C557.5,375.261424 559.738576,377.5 562.5,377.5 C565.261424,377.5 567.5,375.261424 567.5,372.5 C567.5,369.738576 565.261424,367.5 562.5,367.5 Z M157.5,367.5 C154.738576,367.5 152.5,369.738576 152.5,372.5 C152.5,375.261424 154.738576,377.5 157.5,377.5 C160.261424,377.5 162.5,375.261424 162.5,372.5 C162.5,369.738576 160.261424,367.5 157.5,367.5 Z M577.5,367.5 C574.738576,367.5 572.5,369.738576 572.5,372.5 C572.5,375.261424 574.738576,377.5 577.5,377.5 C580.261424,377.5 582.5,375.261424 582.5,372.5 C582.5,369.738576 580.261424,367.5 577.5,367.5 Z M172.5,367.5 C169.738576,367.5 167.5,369.738576 167.5,372.5 C167.5,375.261424 169.738576,377.5 172.5,377.5 C175.261424,377.5 177.5,375.261424 177.5,372.5 C177.5,369.738576 175.261424,367.5 172.5,367.5 Z M592.5,367.5 C589.738576,367.5 587.5,369.738576 587.5,372.5 C587.5,375.261424 589.738576,377.5 592.5,377.5 C595.261424,377.5 597.5,375.261424 597.5,372.5 C597.5,369.738576 595.261424,367.5 592.5,367.5 Z M187.5,367.5 C184.738576,367.5 182.5,369.738576 182.5,372.5 C182.5,375.261424 184.738576,377.5 187.5,377.5 C190.261424,377.5 192.5,375.261424 192.5,372.5 C192.5,369.738576 190.261424,367.5 187.5,367.5 Z M607.5,367.5 C604.738576,367.5 602.5,369.738576 602.5,372.5 C602.5,375.261424 604.738576,377.5 607.5,377.5 C610.261424,377.5 612.5,375.261424 612.5,372.5 C612.5,369.738576 610.261424,367.5 607.5,367.5 Z M202.5,367.5 C199.738576,367.5 197.5,369.738576 197.5,372.5 C197.5,375.261424 199.738576,377.5 202.5,377.5 C205.261424,377.5 207.5,375.261424 207.5,372.5 C207.5,369.738576 205.261424,367.5 202.5,367.5 Z M622.5,367.5 C619.738576,367.5 617.5,369.738576 617.5,372.5 C617.5,375.261424 619.738576,377.5 622.5,377.5 C625.261424,377.5 627.5,375.261424 627.5,372.5 C627.5,369.738576 625.261424,367.5 622.5,367.5 Z M217.5,367.5 C214.738576,367.5 212.5,369.738576 212.5,372.5 C212.5,375.261424 214.738576,377.5 217.5,377.5 C220.261424,377.5 222.5,375.261424 222.5,372.5 C222.5,369.738576 220.261424,367.5 217.5,367.5 Z M637.5,367.5 C634.738576,367.5 632.5,369.738576 632.5,372.5 C632.5,375.261424 634.738576,377.5 637.5,377.5 C640.261424,377.5 642.5,375.261424 642.5,372.5 C642.5,369.738576 640.261424,367.5 637.5,367.5 Z M232.5,367.5 C229.738576,367.5 227.5,369.738576 227.5,372.5 C227.5,375.261424 229.738576,377.5 232.5,377.5 C235.261424,377.5 237.5,375.261424 237.5,372.5 C237.5,369.738576 235.261424,367.5 232.5,367.5 Z M652.5,367.5 C649.738576,367.5 647.5,369.738576 647.5,372.5 C647.5,375.261424 649.738576,377.5 652.5,377.5 C655.261424,377.5 657.5,375.261424 657.5,372.5 C657.5,369.738576 655.261424,367.5 652.5,367.5 Z M247.5,367.5 C244.738576,367.5 242.5,369.738576 242.5,372.5 C242.5,375.261424 244.738576,377.5 247.5,377.5 C250.261424,377.5 252.5,375.261424 252.5,372.5 C252.5,369.738576 250.261424,367.5 247.5,367.5 Z M667.5,367.5 C664.738576,367.5 662.5,369.738576 662.5,372.5 C662.5,375.261424 664.738576,377.5 667.5,377.5 C670.261424,377.5 672.5,375.261424 672.5,372.5 C672.5,369.738576 670.261424,367.5 667.5,367.5 Z M262.5,367.5 C259.738576,367.5 257.5,369.738576 257.5,372.5 C257.5,375.261424 259.738576,377.5 262.5,377.5 C265.261424,377.5 267.5,375.261424 267.5,372.5 C267.5,369.738576 265.261424,367.5 262.5,367.5 Z M682.5,367.5 C679.738576,367.5 677.5,369.738576 677.5,372.5 C677.5,375.261424 679.738576,377.5 682.5,377.5 C685.261424,377.5 687.5,375.261424 687.5,372.5 C687.5,369.738576 685.261424,367.5 682.5,367.5 Z M277.5,367.5 C274.738576,367.5 272.5,369.738576 272.5,372.5 C272.5,375.261424 274.738576,377.5 277.5,377.5 C280.261424,377.5 282.5,375.261424 282.5,372.5 C282.5,369.738576 280.261424,367.5 277.5,367.5 Z M697.5,367.5 C694.738576,367.5 692.5,369.738576 692.5,372.5 C692.5,375.261424 694.738576,377.5 697.5,377.5 C700.261424,377.5 702.5,375.261424 702.5,372.5 C702.5,369.738576 700.261424,367.5 697.5,367.5 Z M292.5,367.5 C289.738576,367.5 287.5,369.738576 287.5,372.5 C287.5,375.261424 289.738576,377.5 292.5,377.5 C295.261424,377.5 297.5,375.261424 297.5,372.5 C297.5,369.738576 295.261424,367.5 292.5,367.5 Z M712.5,367.5 C709.738576,367.5 707.5,369.738576 707.5,372.5 C707.5,375.261424 709.738576,377.5 712.5,377.5 C715.261424,377.5 717.5,375.261424 717.5,372.5 C717.5,369.738576 715.261424,367.5 712.5,367.5 Z M307.5,367.5 C304.738576,367.5 302.5,369.738576 302.5,372.5 C302.5,375.261424 304.738576,377.5 307.5,377.5 C310.261424,377.5 312.5,375.261424 312.5,372.5 C312.5,369.738576 310.261424,367.5 307.5,367.5 Z M727.5,367.5 C724.738576,367.5 722.5,369.738576 722.5,372.5 C722.5,375.261424 724.738576,377.5 727.5,377.5 C730.261424,377.5 732.5,375.261424 732.5,372.5 C732.5,369.738576 730.261424,367.5 727.5,367.5 Z M322.5,367.5 C319.738576,367.5 317.5,369.738576 317.5,372.5 C317.5,375.261424 319.738576,377.5 322.5,377.5 C325.261424,377.5 327.5,375.261424 327.5,372.5 C327.5,369.738576 325.261424,367.5 322.5,367.5 Z M742.5,367.5 C739.738576,367.5 737.5,369.738576 737.5,372.5 C737.5,375.261424 739.738576,377.5 742.5,377.5 C745.261424,377.5 747.5,375.261424 747.5,372.5 C747.5,369.738576 745.261424,367.5 742.5,367.5 Z M337.5,367.5 C334.738576,367.5 332.5,369.738576 332.5,372.5 C332.5,375.261424 334.738576,377.5 337.5,377.5 C340.261424,377.5 342.5,375.261424 342.5,372.5 C342.5,369.738576 340.261424,367.5 337.5,367.5 Z M757.5,367.5 C754.738576,367.5 752.5,369.738576 752.5,372.5 C752.5,375.261424 754.738576,377.5 757.5,377.5 C760.261424,377.5 762.5,375.261424 762.5,372.5 C762.5,369.738576 760.261424,367.5 757.5,367.5 Z" id="bottom-rail" fill="#C0C0C0" mask="url(#mask-2)"></path>
        <g id="bus" mask="url(#mask-2)">
            <g transform="translate(0.000000, 145.000000)" id="RackBusboard">
                <g>
                    <g>
                        <polygon id="path57596" fill="#212121" fill-rule="nonzero" points="0 89.8891816 287 89.8891816 287 0.492951522 0 0.492951522"></polygon>
                        <path d="M15.021878,54.1291608 L287,54.1291608" id="path57598" stroke="#2E2E2E" stroke-width="14"></path>
                        <path d="M15.021878,24.330418 L287,24.330418" id="path57600" stroke="#2E2E2E" stroke-width="2.53800011"></path>
                        <path d="M15.021878,30.2916952 L287,30.2916952" id="path57602" stroke="#2E2E2E" stroke-width="2.53800011"></path>
                        <path d="M15.021878,36.2529724 L287,36.2529724" id="path57604" stroke="#2E2E2E" stroke-width="2.53800011"></path>
                        <path d="M15.021878,42.2104275 L287,42.2104275" id="path57606" stroke="#2E2E2E" stroke-width="2.53800011"></path>
                        <path d="M15.021878,66.0517151 L287,66.0517151" id="path57608" stroke="#2E2E2E" stroke-width="2.53800011"></path>
                        <path d="M102.447729,78.8226055 C102.447729,81.9637396 99.8552025,84.5087468 96.6554096,84.5087468 C93.4595131,84.5087468 90.8669843,81.9637396 90.8669843,78.8226055 C90.8669843,75.6852926 93.4595131,73.1402853 96.6554096,73.1402853 C99.8552025,73.1402853 102.447729,75.6852926 102.447729,78.8226055" id="path57610" fill="#424242" fill-rule="nonzero"></path>
                        <polygon id="path57614" fill="#212121" fill-rule="nonzero" points="97.3171658 82.2388754 95.9975448 82.2388754 95.9975448 75.4101567 97.3171658 75.4101567"></polygon>
                        <polygon id="path57616" fill="#212121" fill-rule="nonzero" points="100.135476 79.4684103 93.1792397 79.4684103 93.1792397 78.1767998 100.135476 78.1767998"></polygon>
                        <path d="M102.447729,11.5557065 C102.447729,14.6968415 99.8552025,17.2418478 96.6554096,17.2418478 C93.4595131,17.2418478 90.8669843,14.6968415 90.8669843,11.5557065 C90.8669843,8.41839359 93.4595131,5.8733863 96.6554096,5.8733863 C99.8552025,5.8733863 102.447729,8.41839359 102.447729,11.5557065" id="path57618" fill="#424242" fill-rule="nonzero"></path>
                        <polygon id="path57622" fill="#212121" fill-rule="nonzero" points="97.3171658 14.9719774 95.9975448 14.9719774 95.9975448 8.14325772 97.3171658 8.14325772"></polygon>
                        <polygon id="path57624" fill="#212121" fill-rule="nonzero" points="100.135476 12.2053324 93.1792397 12.2053324 93.1792397 10.9099017 100.135476 10.9099017"></polygon>
                        <polygon id="path57626" fill="#0F0F0F" fill-rule="nonzero" points="0.517727073 77.9207713 20.5962052 77.9207713 20.5962052 12.4575408 0.517727073 12.4575408"></polygon>
                        <polygon id="path57628" fill="#303030" fill-rule="nonzero" points="18.3267687 75.2229108 2.78716363 75.2229108 2.78716363 15.1554013 18.3267687 15.1554013"></polygon>
                        <polygon id="path57630" fill="#878787" fill-rule="nonzero" points="8.27974472 25.075577 6.76159643 25.075577 6.76159643 23.5852582 8.27974472 23.5852582"></polygon>
                        <polygon id="path57632" fill="#878787" fill-rule="nonzero" points="14.3523359 25.075577 12.8341876 25.075577 12.8341876 23.5852582 14.3523359 23.5852582"></polygon>
                        <polygon id="path57634" fill="#878787" fill-rule="nonzero" points="8.27974472 31.0368541 6.76159643 31.0368541 6.76159643 29.5465353 8.27974472 29.5465353"></polygon>
                        <polygon id="path57636" fill="#878787" fill-rule="nonzero" points="14.3523359 31.0368541 12.8341876 31.0368541 12.8341876 29.5465353 14.3523359 29.5465353"></polygon>
                        <polygon id="path57638" fill="#878787" fill-rule="nonzero" points="8.27974472 36.9943102 6.76159643 36.9943102 6.76159643 35.5078125 8.27974472 35.5078125"></polygon>
                        <polygon id="path57640" fill="#878787" fill-rule="nonzero" points="14.3523359 36.9943102 12.8341876 36.9943102 12.8341876 35.5078125 14.3523359 35.5078125"></polygon>
                        <polygon id="path57642" fill="#878787" fill-rule="nonzero" points="8.27974472 42.9555874 6.76159643 42.9555874 6.76159643 41.4652686 8.27974472 41.4652686"></polygon>
                        <polygon id="path57644" fill="#878787" fill-rule="nonzero" points="14.3523359 42.9555874 12.8341876 42.9555874 12.8341876 41.4652686 14.3523359 41.4652686"></polygon>
                        <polygon id="path57646" fill="#878787" fill-rule="nonzero" points="8.27974472 48.9168646 6.76159643 48.9168646 6.76159643 47.4265458 8.27974472 47.4265458"></polygon>
                        <polygon id="path57648" fill="#878787" fill-rule="nonzero" points="14.3523359 48.9168646 12.8341876 48.9168646 12.8341876 47.4265458 14.3523359 47.4265458"></polygon>
                        <polygon id="path57650" fill="#878787" fill-rule="nonzero" points="8.27974472 54.8743207 6.76159643 54.8743207 6.76159643 53.3840009 8.27974472 53.3840009"></polygon>
                        <polygon id="path57652" fill="#878787" fill-rule="nonzero" points="14.3523359 54.8743207 12.8341876 54.8743207 12.8341876 53.3840009 14.3523359 53.3840009"></polygon>
                        <polygon id="path57654" fill="#878787" fill-rule="nonzero" points="8.27974472 60.8355978 6.76159643 60.8355978 6.76159643 59.345278 8.27974472 59.345278"></polygon>
                        <polygon id="path57656" fill="#878787" fill-rule="nonzero" points="14.3523359 60.8355978 12.8341876 60.8355978 12.8341876 59.345278 14.3523359 59.345278"></polygon>
                        <polygon id="path57658" fill="#878787" fill-rule="nonzero" points="8.27974472 66.7930539 6.76159643 66.7930539 6.76159643 65.3027341 8.27974472 65.3027341"></polygon>
                        <polygon id="path57660" fill="#878787" fill-rule="nonzero" points="14.3523359 66.7930539 12.8341876 66.7930539 12.8341876 65.3027341 14.3523359 65.3027341"></polygon>
                        <path d="M0.996527778,83.5534135 L20.1174045,83.5534135" id="path57662" stroke="#303030" stroke-width="2" stroke-linecap="round" stroke-linejoin="round"></path>
                        <path d="M0,0.492951766 L287,0.492951766" id="path57664" stroke="#3F3F3F" stroke-width="0.84600002"></path>
                        <path d="M0,89.8853596 L287,89.8853596" id="path57666" stroke="#0F0F0F" stroke-width="0.84600002"></path>
                        <polygon id="path57670" fill="#0F0F0F" fill-rule="nonzero" points="77.9977618 77.9207713 57.9192846 77.9207713 57.9192846 12.4613618 77.9977618 12.4613618"></polygon>
                        <polygon id="path57672" fill="#303030" fill-rule="nonzero" points="75.7283262 75.2229108 60.1848278 75.2229108 60.1848278 15.1554013 75.7283262 15.1554013"></polygon>
                        <polygon id="path57674" fill="#878787" fill-rule="nonzero" points="65.6813013 25.075577 64.163154 25.075577 64.163154 23.5852582 65.6813013 23.5852582"></polygon>
                        <polygon id="path57676" fill="#878787" fill-rule="nonzero" points="71.75 25.075577 70.2318517 25.075577 70.2318517 23.5852582 71.75 23.5852582"></polygon>
                        <polygon id="path57678" fill="#878787" fill-rule="nonzero" points="65.6813013 31.0368541 64.163154 31.0368541 64.163154 29.5465353 65.6813013 29.5465353"></polygon>
                        <polygon id="path57680" fill="#878787" fill-rule="nonzero" points="71.75 31.0368541 70.2318517 31.0368541 70.2318517 29.5465353 71.75 29.5465353"></polygon>
                        <polygon id="path57682" fill="#878787" fill-rule="nonzero" points="65.6813013 36.9943102 64.163154 36.9943102 64.163154 35.5078125 65.6813013 35.5078125"></polygon>
                        <polygon id="path57684" fill="#878787" fill-rule="nonzero" points="71.75 36.9943102 70.2318517 36.9943102 70.2318517 35.5078125 71.75 35.5078125"></polygon>
                        <polygon id="path57686" fill="#878787" fill-rule="nonzero" points="65.6813013 42.9555874 64.163154 42.9555874 64.163154 41.4652686 65.6813013 41.4652686"></polygon>
                        <polygon id="path57688" fill="#878787" fill-rule="nonzero" points="71.75 42.9555874 70.2318517 42.9555874 70.2318517 41.4652686 71.75 41.4652686"></polygon>
                        <polygon id="path57690" fill="#878787" fill-rule="nonzero" points="65.6813013 48.9168646 64.163154 48.9168646 64.163154 47.4265458 65.6813013 47.4265458"></polygon>
                        <polygon id="path57692" fill="#878787" fill-rule="nonzero" points="71.75 48.9168646 70.2318517 48.9168646 70.2318517 47.4265458 71.75 47.4265458"></polygon>
                        <polygon id="path57694" fill="#878787" fill-rule="nonzero" points="65.6813013 54.8743207 64.163154 54.8743207 64.163154 53.3840009 65.6813013 53.3840009"></polygon>
                        <polygon id="path57696" fill="#878787" fill-rule="nonzero" points="71.75 54.8743207 70.2318517 54.8743207 70.2318517 53.3840009 71.75 53.3840009"></polygon>
                        <polygon id="path57698" fill="#878787" fill-rule="nonzero" points="65.6813013 60.8355978 64.163154 60.8355978 64.163154 59.345278 65.6813013 59.345278"></polygon>
                        <polygon id="path57700" fill="#878787" fill-rule="nonzero" points="71.75 60.8355978 70.2318517 60.8355978 70.2318517 59.345278 71.75 59.345278"></polygon>
                        <polygon id="path57702" fill="#878787" fill-rule="nonzero" points="65.6813013 66.7930539 64.163154 66.7930539 64.163154 65.3027341 65.6813013 65.3027341"></polygon>
                        <polygon id="path57704" fill="#878787" fill-rule="nonzero" points="71.75 66.7930539 70.2318517 66.7930539 70.2318517 65.3027341 71.75 65.3027341"></polygon>
                        <path d="M58.3980844,83.5534135 L77.5150687,83.5534135" id="path57706" stroke="#303030" stroke-width="2" stroke-linecap="round" stroke-linejoin="round"></path>
                        <polygon id="path57708" fill="#0F0F0F" fill-rule="nonzero" points="135.395429 77.9207713 115.320845 77.9207713 115.320845 12.4613618 135.395429 12.4613618"></polygon>
                        <polygon id="path57710" fill="#303030" fill-rule="nonzero" points="133.129883 75.2229108 117.586381 75.2229108 117.586381 15.1554013 133.129883 15.1554013"></polygon>
                        <polygon id="path57712" fill="#878787" fill-rule="nonzero" points="123.078963 25.075577 121.560823 25.075577 121.560823 23.5852582 123.078963 23.5852582"></polygon>
                        <polygon id="path57714" fill="#878787" fill-rule="nonzero" points="129.151555 25.075577 127.633404 25.075577 127.633404 23.5852582 129.151555 23.5852582"></polygon>
                        <polygon id="path57716" fill="#878787" fill-rule="nonzero" points="123.078963 31.0368541 121.560823 31.0368541 121.560823 29.5465353 123.078963 29.5465353"></polygon>
                        <polygon id="path57718" fill="#878787" fill-rule="nonzero" points="129.151555 31.0368541 127.633404 31.0368541 127.633404 29.5465353 129.151555 29.5465353"></polygon>
                        <polygon id="path57720" fill="#878787" fill-rule="nonzero" points="123.078963 36.9943102 121.560823 36.9943102 121.560823 35.5078125 123.078963 35.5078125"></polygon>
                        <polygon id="path57722" fill="#878787" fill-rule="nonzero" points="129.151555 36.9943102 127.633404 36.9943102 127.633404 35.5078125 129.151555 35.5078125"></polygon>
                        <polygon id="path57724" fill="#878787" fill-rule="nonzero" points="123.078963 42.9555874 121.560823 42.9555874 121.560823 41.4652686 123.078963 41.4652686"></polygon>
                        <polygon id="path57726" fill="#878787" fill-rule="nonzero" points="129.151555 42.9555874 127.633404 42.9555874 127.633404 41.4652686 129.151555 41.4652686"></polygon>
                        <polygon id="path57728" fill="#878787" fill-rule="nonzero" points="123.078963 48.9168646 121.560823 48.9168646 121.560823 47.4265458 123.078963 47.4265458"></polygon>
                        <polygon id="path57730" fill="#878787" fill-rule="nonzero" points="129.151555 48.9168646 127.633404 48.9168646 127.633404 47.4265458 129.151555 47.4265458"></polygon>
                        <polygon id="path57732" fill="#878787" fill-rule="nonzero" points="123.078963 54.8743207 121.560823 54.8743207 121.560823 53.3840009 123.078963 53.3840009"></polygon>
                        <polygon id="path57734" fill="#878787" fill-rule="nonzero" points="129.151555 54.8743207 127.633404 54.8743207 127.633404 53.3840009 129.151555 53.3840009"></polygon>
                        <polygon id="path57736" fill="#878787" fill-rule="nonzero" points="123.078963 60.8355978 121.560823 60.8355978 121.560823 59.345278 123.078963 59.345278"></polygon>
                        <polygon id="path57738" fill="#878787" fill-rule="nonzero" points="129.151555 60.8355978 127.633404 60.8355978 127.633404 59.345278 129.151555 59.345278"></polygon>
                        <polygon id="path57740" fill="#878787" fill-rule="nonzero" points="123.078963 66.7930539 121.560823 66.7930539 121.560823 65.3027341 123.078963 65.3027341"></polygon>
                        <polygon id="path57742" fill="#878787" fill-rule="nonzero" points="129.151555 66.7930539 127.633404 66.7930539 127.633404 65.3027341 129.151555 65.3027341"></polygon>
                        <path d="M115.79575,83.5534135 L134.916627,83.5534135" id="path57744" stroke="#303030" stroke-width="2" stroke-linecap="round" stroke-linejoin="round"></path>
                        <polygon id="path57746" fill="#0F0F0F" fill-rule="nonzero" points="192.796984 77.9207713 172.718503 77.9207713 172.718503 12.4613618 192.796984 12.4613618"></polygon>
                        <polygon id="path57748" fill="#303030" fill-rule="nonzero" points="190.527551 75.2229108 174.987946 75.2229108 174.987946 15.1554013 190.527551 15.1554013"></polygon>
                        <polygon id="path57750" fill="#878787" fill-rule="nonzero" points="180.480518 25.075577 178.962378 25.075577 178.962378 23.5852582 180.480518 23.5852582"></polygon>
                        <polygon id="path57752" fill="#878787" fill-rule="nonzero" points="186.549223 25.075577 185.034969 25.075577 185.034969 23.5852582 186.549223 23.5852582"></polygon>
                        <polygon id="path57754" fill="#878787" fill-rule="nonzero" points="180.480518 31.0368541 178.962378 31.0368541 178.962378 29.5465353 180.480518 29.5465353"></polygon>
                        <polygon id="path57756" fill="#878787" fill-rule="nonzero" points="186.549223 31.0368541 185.034969 31.0368541 185.034969 29.5465353 186.549223 29.5465353"></polygon>
                        <polygon id="path57758" fill="#878787" fill-rule="nonzero" points="180.480518 36.9943102 178.962378 36.9943102 178.962378 35.5078125 180.480518 35.5078125"></polygon>
                        <polygon id="path57760" fill="#878787" fill-rule="nonzero" points="186.549223 36.9943102 185.034969 36.9943102 185.034969 35.5078125 186.549223 35.5078125"></polygon>
                        <polygon id="path57762" fill="#878787" fill-rule="nonzero" points="180.480518 42.9555874 178.962378 42.9555874 178.962378 41.4652686 180.480518 41.4652686"></polygon>
                        <polygon id="path57764" fill="#878787" fill-rule="nonzero" points="186.549223 42.9555874 185.034969 42.9555874 185.034969 41.4652686 186.549223 41.4652686"></polygon>
                        <polygon id="path57766" fill="#878787" fill-rule="nonzero" points="180.480518 48.9168646 178.962378 48.9168646 178.962378 47.4265458 180.480518 47.4265458"></polygon>
                        <polygon id="path57768" fill="#878787" fill-rule="nonzero" points="186.549223 48.9168646 185.034969 48.9168646 185.034969 47.4265458 186.549223 47.4265458"></polygon>
                        <polygon id="path57770" fill="#878787" fill-rule="nonzero" points="180.480518 54.8743207 178.962378 54.8743207 178.962378 53.3840009 180.480518 53.3840009"></polygon>
                        <polygon id="path57772" fill="#878787" fill-rule="nonzero" points="186.549223 54.8743207 185.034969 54.8743207 185.034969 53.3840009 186.549223 53.3840009"></polygon>
                        <polygon id="path57774" fill="#878787" fill-rule="nonzero" points="180.480518 60.8355978 178.962378 60.8355978 178.962378 59.345278 180.480518 59.345278"></polygon>
                        <polygon id="path57776" fill="#878787" fill-rule="nonzero" points="186.549223 60.8355978 185.034969 60.8355978 185.034969 59.345278 186.549223 59.345278"></polygon>
                        <polygon id="path57778" fill="#878787" fill-rule="nonzero" points="180.480518 66.7930539 178.962378 66.7930539 178.962378 65.3027341 180.480518 65.3027341"></polygon>
                        <polygon id="path57780" fill="#878787" fill-rule="nonzero" points="186.549223 66.7930539 185.034969 66.7930539 185.034969 65.3027341 186.549223 65.3027341"></polygon>
                        <path d="M173.197305,83.5534135 L192.318182,83.5534135" id="path57782" stroke="#303030" stroke-width="2" stroke-linecap="round" stroke-linejoin="round"></path>
                        <polygon id="path57784" fill="#0F0F0F" fill-rule="nonzero" points="250.194652 77.9207713 230.120058 77.9207713 230.120058 12.4613618 250.194652 12.4613618"></polygon>
                        <polygon id="path57786" fill="#303030" fill-rule="nonzero" points="247.929106 75.2229108 232.385604 75.2229108 232.385604 15.1554013 247.929106 15.1554013"></polygon>
                        <polygon id="path57788" fill="#878787" fill-rule="nonzero" points="237.882083 25.075577 236.363932 25.075577 236.363932 23.5852582 237.882083 23.5852582"></polygon>
                        <polygon id="path57790" fill="#878787" fill-rule="nonzero" points="243.950777 25.075577 242.432627 25.075577 242.432627 23.5852582 243.950777 23.5852582"></polygon>
                        <polygon id="path57792" fill="#878787" fill-rule="nonzero" points="237.882083 31.0368541 236.363932 31.0368541 236.363932 29.5465353 237.882083 29.5465353"></polygon>
                        <polygon id="path57794" fill="#878787" fill-rule="nonzero" points="243.950777 31.0368541 242.432627 31.0368541 242.432627 29.5465353 243.950777 29.5465353"></polygon>
                        <polygon id="path57796" fill="#878787" fill-rule="nonzero" points="237.882083 36.9943102 236.363932 36.9943102 236.363932 35.5078125 237.882083 35.5078125"></polygon>
                        <polygon id="path57798" fill="#878787" fill-rule="nonzero" points="243.950777 36.9943102 242.432627 36.9943102 242.432627 35.5078125 243.950777 35.5078125"></polygon>
                        <polygon id="path57800" fill="#878787" fill-rule="nonzero" points="237.882083 42.9555874 236.363932 42.9555874 236.363932 41.4652686 237.882083 41.4652686"></polygon>
                        <polygon id="path57802" fill="#878787" fill-rule="nonzero" points="243.950777 42.9555874 242.432627 42.9555874 242.432627 41.4652686 243.950777 41.4652686"></polygon>
                        <polygon id="path57804" fill="#878787" fill-rule="nonzero" points="237.882083 48.9168646 236.363932 48.9168646 236.363932 47.4265458 237.882083 47.4265458"></polygon>
                        <polygon id="path57806" fill="#878787" fill-rule="nonzero" points="243.950777 48.9168646 242.432627 48.9168646 242.432627 47.4265458 243.950777 47.4265458"></polygon>
                        <polygon id="path57808" fill="#878787" fill-rule="nonzero" points="237.882083 54.8743207 236.363932 54.8743207 236.363932 53.3840009 237.882083 53.3840009"></polygon>
                        <polygon id="path57810" fill="#878787" fill-rule="nonzero" points="243.950777 54.8743207 242.432627 54.8743207 242.432627 53.3840009 243.950777 53.3840009"></polygon>
                        <polygon id="path57812" fill="#878787" fill-rule="nonzero" points="237.882083 60.8355978 236.363932 60.8355978 236.363932 59.345278 237.882083 59.345278"></polygon>
                        <polygon id="path57814" fill="#878787" fill-rule="nonzero" points="243.950777 60.8355978 242.432627 60.8355978 242.432627 59.345278 243.950777 59.345278"></polygon>
                        <polygon id="path57816" fill="#878787" fill-rule="nonzero" points="237.882083 66.7930539 236.363932 66.7930539 236.363932 65.3027341 237.882083 65.3027341"></polygon>
                        <polygon id="path57818" fill="#878787" fill-rule="nonzero" points="243.950777 66.7930539 242.432627 66.7930539 242.432627 65.3027341 243.950777 65.3027341"></polygon>
                        <path d="M230.59886,83.5534135 L249.71585,83.5534135" id="path57820" stroke="#303030" stroke-width="2" stroke-linecap="round" stroke-linejoin="round"></path>
                    </g>
                </g>
                <g transform="translate(288.000000, 0.000000)">
                    <g>
                        <polygon id="path57596" fill="#212121" fill-rule="nonzero" points="0 89.8891816 287 89.8891816 287 0.492951522 0 0.492951522"></polygon>
                        <path d="M15.021878,54.1291608 L287,54.1291608" id="path57598" stroke="#2E2E2E" stroke-width="14"></path>
                        <path d="M15.021878,24.330418 L287,24.330418" id="path57600" stroke="#2E2E2E" stroke-width="2.53800011"></path>
                        <path d="M15.021878,30.2916952 L287,30.2916952" id="path57602" stroke="#2E2E2E" stroke-width="2.53800011"></path>
                        <path d="M15.021878,36.2529724 L287,36.2529724" id="path57604" stroke="#2E2E2E" stroke-width="2.53800011"></path>
                        <path d="M15.021878,42.2104275 L287,42.2104275" id="path57606" stroke="#2E2E2E" stroke-width="2.53800011"></path>
                        <path d="M15.021878,66.0517151 L287,66.0517151" id="path57608" stroke="#2E2E2E" stroke-width="2.53800011"></path>
                        <path d="M102.447729,78.8226055 C102.447729,81.9637396 99.8552025,84.5087468 96.6554096,84.5087468 C93.4595131,84.5087468 90.8669843,81.9637396 90.8669843,78.8226055 C90.8669843,75.6852926 93.4595131,73.1402853 96.6554096,73.1402853 C99.8552025,73.1402853 102.447729,75.6852926 102.447729,78.8226055" id="path57610" fill="#424242" fill-rule="nonzero"></path>
                        <polygon id="path57614" fill="#212121" fill-rule="nonzero" points="97.3171658 82.2388754 95.9975448 82.2388754 95.9975448 75.4101567 97.3171658 75.4101567"></polygon>
                        <polygon id="path57616" fill="#212121" fill-rule="nonzero" points="100.135476 79.4684103 93.1792397 79.4684103 93.1792397 78.1767998 100.135476 78.1767998"></polygon>
                        <path d="M102.447729,11.5557065 C102.447729,14.6968415 99.8552025,17.2418478 96.6554096,17.2418478 C93.4595131,17.2418478 90.8669843,14.6968415 90.8669843,11.5557065 C90.8669843,8.41839359 93.4595131,5.8733863 96.6554096,5.8733863 C99.8552025,5.8733863 102.447729,8.41839359 102.447729,11.5557065" id="path57618" fill="#424242" fill-rule="nonzero"></path>
                        <polygon id="path57622" fill="#212121" fill-rule="nonzero" points="97.3171658 14.9719774 95.9975448 14.9719774 95.9975448 8.14325772 97.3171658 8.14325772"></polygon>
                        <polygon id="path57624" fill="#212121" fill-rule="nonzero" points="100.135476 12.2053324 93.1792397 12.2053324 93.1792397 10.9099017 100.135476 10.9099017"></polygon>
                        <polygon id="path57626" fill="#0F0F0F" fill-rule="nonzero" points="0.517727073 77.9207713 20.5962052 77.9207713 20.5962052 12.4575408 0.517727073 12.4575408"></polygon>
                        <polygon id="path57628" fill="#303030" fill-rule="nonzero" points="18.3267687 75.2229108 2.78716363 75.2229108 2.78716363 15.1554013 18.3267687 15.1554013"></polygon>
                        <polygon id="path57630" fill="#878787" fill-rule="nonzero" points="8.27974472 25.075577 6.76159643 25.075577 6.76159643 23.5852582 8.27974472 23.5852582"></polygon>
                        <polygon id="path57632" fill="#878787" fill-rule="nonzero" points="14.3523359 25.075577 12.8341876 25.075577 12.8341876 23.5852582 14.3523359 23.5852582"></polygon>
                        <polygon id="path57634" fill="#878787" fill-rule="nonzero" points="8.27974472 31.0368541 6.76159643 31.0368541 6.76159643 29.5465353 8.27974472 29.5465353"></polygon>
                        <polygon id="path57636" fill="#878787" fill-rule="nonzero" points="14.3523359 31.0368541 12.8341876 31.0368541 12.8341876 29.5465353 14.3523359 29.5465353"></polygon>
                        <polygon id="path57638" fill="#878787" fill-rule="nonzero" points="8.27974472 36.9943102 6.76159643 36.9943102 6.76159643 35.5078125 8.27974472 35.5078125"></polygon>
                        <polygon id="path57640" fill="#878787" fill-rule="nonzero" points="14.3523359 36.9943102 12.8341876 36.9943102 12.8341876 35.5078125 14.3523359 35.5078125"></polygon>
                        <polygon id="path57642" fill="#878787" fill-rule="nonzero" points="8.27974472 42.9555874 6.76159643 42.9555874 6.76159643 41.4652686 8.27974472 41.4652686"></polygon>
                        <polygon id="path57644" fill="#878787" fill-rule="nonzero" points="14.3523359 42.9555874 12.8341876 42.9555874 12.8341876 41.4652686 14.3523359 41.4652686"></polygon>
                        <polygon id="path57646" fill="#878787" fill-rule="nonzero" points="8.27974472 48.9168646 6.76159643 48.9168646 6.76159643 47.4265458 8.27974472 47.4265458"></polygon>
                        <polygon id="path57648" fill="#878787" fill-rule="nonzero" points="14.3523359 48.9168646 12.8341876 48.9168646 12.8341876 47.4265458 14.3523359 47.4265458"></polygon>
                        <polygon id="path57650" fill="#878787" fill-rule="nonzero" points="8.27974472 54.8743207 6.76159643 54.8743207 6.76159643 53.3840009 8.27974472 53.3840009"></polygon>
                        <polygon id="path57652" fill="#878787" fill-rule="nonzero" points="14.3523359 54.8743207 12.8341876 54.8743207 12.8341876 53.3840009 14.3523359 53.3840009"></polygon>
                        <polygon id="path57654" fill="#878787" fill-rule="nonzero" points="8.27974472 60.8355978 6.76159643 60.8355978 6.76159643 59.345278 8.27974472 59.345278"></polygon>
                        <polygon id="path57656" fill="#878787" fill-rule="nonzero" points="14.3523359 60.8355978 12.8341876 60.8355978 12.8341876 59.345278 14.3523359 59.345278"></polygon>
                        <polygon id="path57658" fill="#878787" fill-rule="nonzero" points="8.27974472 66.7930539 6.76159643 66.7930539 6.76159643 65.3027341 8.27974472 65.3027341"></polygon>
                        <polygon id="path57660" fill="#878787" fill-rule="nonzero" points="14.3523359 66.7930539 12.8341876 66.7930539 12.8341876 65.3027341 14.3523359 65.3027341"></polygon>
                        <path d="M0.996527778,83.5534135 L20.1174045,83.5534135" id="path57662" stroke="#303030" stroke-width="2" stroke-linecap="round" stroke-linejoin="round"></path>
                        <path d="M0,0.492951766 L287,0.492951766" id="path57664" stroke="#3F3F3F" stroke-width="0.84600002"></path>
                        <path d="M0,89.8853596 L287,89.8853596" id="path57666" stroke="#0F0F0F" stroke-width="0.84600002"></path>
                        <polygon id="path57670" fill="#0F0F0F" fill-rule="nonzero" points="77.9977618 77.9207713 57.9192846 77.9207713 57.9192846 12.4613618 77.9977618 12.4613618"></polygon>
                        <polygon id="path57672" fill="#303030" fill-rule="nonzero" points="75.7283262 75.2229108 60.1848278 75.2229108 60.1848278 15.1554013 75.7283262 15.1554013"></polygon>
                        <polygon id="path57674" fill="#878787" fill-rule="nonzero" points="65.6813013 25.075577 64.163154 25.075577 64.163154 23.5852582 65.6813013 23.5852582"></polygon>
                        <polygon id="path57676" fill="#878787" fill-rule="nonzero" points="71.75 25.075577 70.2318517 25.075577 70.2318517 23.5852582 71.75 23.5852582"></polygon>
                        <polygon id="path57678" fill="#878787" fill-rule="nonzero" points="65.6813013 31.0368541 64.163154 31.0368541 64.163154 29.5465353 65.6813013 29.5465353"></polygon>
                        <polygon id="path57680" fill="#878787" fill-rule="nonzero" points="71.75 31.0368541 70.2318517 31.0368541 70.2318517 29.5465353 71.75 29.5465353"></polygon>
                        <polygon id="path57682" fill="#878787" fill-rule="nonzero" points="65.6813013 36.9943102 64.163154 36.9943102 64.163154 35.5078125 65.6813013 35.5078125"></polygon>
                        <polygon id="path57684" fill="#878787" fill-rule="nonzero" points="71.75 36.9943102 70.2318517 36.9943102 70.2318517 35.5078125 71.75 35.5078125"></polygon>
                        <polygon id="path57686" fill="#878787" fill-rule="nonzero" points="65.6813013 42.9555874 64.163154 42.9555874 64.163154 41.4652686 65.6813013 41.4652686"></polygon>
                        <polygon id="path57688" fill="#878787" fill-rule="nonzero" points="71.75 42.9555874 70.2318517 42.9555874 70.2318517 41.4652686 71.75 41.4652686"></polygon>
                        <polygon id="path57690" fill="#878787" fill-rule="nonzero" points="65.6813013 48.9168646 64.163154 48.9168646 64.163154 47.4265458 65.6813013 47.4265458"></polygon>
                        <polygon id="path57692" fill="#878787" fill-rule="nonzero" points="71.75 48.9168646 70.2318517 48.9168646 70.2318517 47.4265458 71.75 47.4265458"></polygon>
                        <polygon id="path57694" fill="#878787" fill-rule="nonzero" points="65.6813013 54.8743207 64.163154 54.8743207 64.163154 53.3840009 65.6813013 53.3840009"></polygon>
                        <polygon id="path57696" fill="#878787" fill-rule="nonzero" points="71.75 54.8743207 70.2318517 54.8743207 70.2318517 53.3840009 71.75 53.3840009"></polygon>
                        <polygon id="path57698" fill="#878787" fill-rule="nonzero" points="65.6813013 60.8355978 64.163154 60.8355978 64.163154 59.345278 65.6813013 59.345278"></polygon>
                        <polygon id="path57700" fill="#878787" fill-rule="nonzero" points="71.75 60.8355978 70.2318517 60.8355978 70.2318517 59.345278 71.75 59.345278"></polygon>
                        <polygon id="path57702" fill="#878787" fill-rule="nonzero" points="65.6813013 66.7930539 64.163154 66.7930539 64.163154 65.3027341 65.6813013 65.3027341"></polygon>
                        <polygon id="path57704" fill="#878787" fill-rule="nonzero" points="71.75 66.7930539 70.2318517 66.7930539 70.2318517 65.3027341 71.75 65.3027341"></polygon>
                        <path d="M58.3980844,83.5534135 L77.5150687,83.5534135" id="path57706" stroke="#303030" stroke-width="2" stroke-linecap="round" stroke-linejoin="round"></path>
                        <polygon id="path57708" fill="#0F0F0F" fill-rule="nonzero" points="135.395429 77.9207713 115.320845 77.9207713 115.320845 12.4613618 135.395429 12.4613618"></polygon>
                        <polygon id="path57710" fill="#303030" fill-rule="nonzero" points="133.129883 75.2229108 117.586381 75.2229108 117.586381 15.1554013 133.129883 15.1554013"></polygon>
                        <polygon id="path57712" fill="#878787" fill-rule="nonzero" points="123.078963 25.075577 121.560823 25.075577 121.560823 23.5852582 123.078963 23.5852582"></polygon>
                        <polygon id="path57714" fill="#878787" fill-rule="nonzero" points="129.151555 25.075577 127.633404 25.075577 127.633404 23.5852582 129.151555 23.5852582"></polygon>
                        <polygon id="path57716" fill="#878787" fill-rule="nonzero" points="123.078963 31.0368541 121.560823 31.0368541 121.560823 29.5465353 123.078963 29.5465353"></polygon>
                        <polygon id="path57718" fill="#878787" fill-rule="nonzero" points="129.151555 31.0368541 127.633404 31.0368541 127.633404 29.5465353 129.151555 29.5465353"></polygon>
                        <polygon id="path57720" fill="#878787" fill-rule="nonzero" points="123.078963 36.9943102 121.560823 36.9943102 121.560823 35.5078125 123.078963 35.5078125"></polygon>
                        <polygon id="path57722" fill="#878787" fill-rule="nonzero" points="129.151555 36.9943102 127.633404 36.9943102 127.633404 35.5078125 129.151555 35.5078125"></polygon>
                        <polygon id="path57724" fill="#878787" fill-rule="nonzero" points="123.078963 42.9555874 121.560823 42.9555874 121.560823 41.4652686 123.078963 41.4652686"></polygon>
                        <polygon id="path57726" fill="#878787" fill-rule="nonzero" points="129.151555 42.9555874 127.633404 42.9555874 127.633404 41.4652686 129.151555 41.4652686"></polygon>
                        <polygon id="path57728" fill="#878787" fill-rule="nonzero" points="123.078963 48.9168646 121.560823 48.9168646 121.560823 47.4265458 123.078963 47.4265458"></polygon>
                        <polygon id="path57730" fill="#878787" fill-rule="nonzero" points="129.151555 48.9168646 127.633404 48.9168646 127.633404 47.4265458 129.151555 47.4265458"></polygon>
                        <polygon id="path57732" fill="#878787" fill-rule="nonzero" points="123.078963 54.8743207 121.560823 54.8743207 121.560823 53.3840009 123.078963 53.3840009"></polygon>
                        <polygon id="path57734" fill="#878787" fill-rule="nonzero" points="129.151555 54.8743207 127.633404 54.8743207 127.633404 53.3840009 129.151555 53.3840009"></polygon>
                        <polygon id="path57736" fill="#878787" fill-rule="nonzero" points="123.078963 60.8355978 121.560823 60.8355978 121.560823 59.345278 123.078963 59.345278"></polygon>
                        <polygon id="path57738" fill="#878787" fill-rule="nonzero" points="129.151555 60.8355978 127.633404 60.8355978 127.633404 59.345278 129.151555 59.345278"></polygon>
                        <polygon id="path57740" fill="#878787" fill-rule="nonzero" points="123.078963 66.7930539 121.560823 66.7930539 121.560823 65.3027341 123.078963 65.3027341"></polygon>
                        <polygon id="path57742" fill="#878787" fill-rule="nonzero" points="129.151555 66.7930539 127.633404 66.7930539 127.633404 65.3027341 129.151555 65.3027341"></polygon>
                        <path d="M115.79575,83.5534135 L134.916627,83.5534135" id="path57744" stroke="#303030" stroke-width="2" stroke-linecap="round" stroke-linejoin="round"></path>
                        <polygon id="path57746" fill="#0F0F0F" fill-rule="nonzero" points="192.796984 77.9207713 172.718503 77.9207713 172.718503 12.4613618 192.796984 12.4613618"></polygon>
                        <polygon id="path57748" fill="#303030" fill-rule="nonzero" points="190.527551 75.2229108 174.987946 75.2229108 174.987946 15.1554013 190.527551 15.1554013"></polygon>
                        <polygon id="path57750" fill="#878787" fill-rule="nonzero" points="180.480518 25.075577 178.962378 25.075577 178.962378 23.5852582 180.480518 23.5852582"></polygon>
                        <polygon id="path57752" fill="#878787" fill-rule="nonzero" points="186.549223 25.075577 185.034969 25.075577 185.034969 23.5852582 186.549223 23.5852582"></polygon>
                        <polygon id="path57754" fill="#878787" fill-rule="nonzero" points="180.480518 31.0368541 178.962378 31.0368541 178.962378 29.5465353 180.480518 29.5465353"></polygon>
                        <polygon id="path57756" fill="#878787" fill-rule="nonzero" points="186.549223 31.0368541 185.034969 31.0368541 185.034969 29.5465353 186.549223 29.5465353"></polygon>
                        <polygon id="path57758" fill="#878787" fill-rule="nonzero" points="180.480518 36.9943102 178.962378 36.9943102 178.962378 35.5078125 180.480518 35.5078125"></polygon>
                        <polygon id="path57760" fill="#878787" fill-rule="nonzero" points="186.549223 36.9943102 185.034969 36.9943102 185.034969 35.5078125 186.549223 35.5078125"></polygon>
                        <polygon id="path57762" fill="#878787" fill-rule="nonzero" points="180.480518 42.9555874 178.962378 42.9555874 178.962378 41.4652686 180.480518 41.4652686"></polygon>
                        <polygon id="path57764" fill="#878787" fill-rule="nonzero" points="186.549223 42.9555874 185.034969 42.9555874 185.034969 41.4652686 186.549223 41.4652686"></polygon>
                        <polygon id="path57766" fill="#878787" fill-rule="nonzero" points="180.480518 48.9168646 178.962378 48.9168646 178.962378 47.4265458 180.480518 47.4265458"></polygon>
                        <polygon id="path57768" fill="#878787" fill-rule="nonzero" points="186.549223 48.9168646 185.034969 48.9168646 185.034969 47.4265458 186.549223 47.4265458"></polygon>
                        <polygon id="path57770" fill="#878787" fill-rule="nonzero" points="180.480518 54.8743207 178.962378 54.8743207 178.962378 53.3840009 180.480518 53.3840009"></polygon>
                        <polygon id="path57772" fill="#878787" fill-rule="nonzero" points="186.549223 54.8743207 185.034969 54.8743207 185.034969 53.3840009 186.549223 53.3840009"></polygon>
                        <polygon id="path57774" fill="#878787" fill-rule="nonzero" points="180.480518 60.8355978 178.962378 60.8355978 178.962378 59.345278 180.480518 59.345278"></polygon>
                        <polygon id="path57776" fill="#878787" fill-rule="nonzero" points="186.549223 60.8355978 185.034969 60.8355978 185.034969 59.345278 186.549223 59.345278"></polygon>
                        <polygon id="path57778" fill="#878787" fill-rule="nonzero" points="180.480518 66.7930539 178.962378 66.7930539 178.962378 65.3027341 180.480518 65.3027341"></polygon>
                        <polygon id="path57780" fill="#878787" fill-rule="nonzero" points="186.549223 66.7930539 185.034969 66.7930539 185.034969 65.3027341 186.549223 65.3027341"></polygon>
                        <path d="M173.197305,83.5534135 L192.318182,83.5534135" id="path57782" stroke="#303030" stroke-width="2" stroke-linecap="round" stroke-linejoin="round"></path>
                        <polygon id="path57784" fill="#0F0F0F" fill-rule="nonzero" points="250.194652 77.9207713 230.120058 77.9207713 230.120058 12.4613618 250.194652 12.4613618"></polygon>
                        <polygon id="path57786" fill="#303030" fill-rule="nonzero" points="247.929106 75.2229108 232.385604 75.2229108 232.385604 15.1554013 247.929106 15.1554013"></polygon>
                        <polygon id="path57788" fill="#878787" fill-rule="nonzero" points="237.882083 25.075577 236.363932 25.075577 236.363932 23.5852582 237.882083 23.5852582"></polygon>
                        <polygon id="path57790" fill="#878787" fill-rule="nonzero" points="243.950777 25.075577 242.432627 25.075577 242.432627 23.5852582 243.950777 23.5852582"></polygon>
                        <polygon id="path57792" fill="#878787" fill-rule="nonzero" points="237.882083 31.0368541 236.363932 31.0368541 236.363932 29.5465353 237.882083 29.5465353"></polygon>
                        <polygon id="path57794" fill="#878787" fill-rule="nonzero" points="243.950777 31.0368541 242.432627 31.0368541 242.432627 29.5465353 243.950777 29.5465353"></polygon>
                        <polygon id="path57796" fill="#878787" fill-rule="nonzero" points="237.882083 36.9943102 236.363932 36.9943102 236.363932 35.5078125 237.882083 35.5078125"></polygon>
                        <polygon id="path57798" fill="#878787" fill-rule="nonzero" points="243.950777 36.9943102 242.432627 36.9943102 242.432627 35.5078125 243.950777 35.5078125"></polygon>
                        <polygon id="path57800" fill="#878787" fill-rule="nonzero" points="237.882083 42.9555874 236.363932 42.9555874 236.363932 41.4652686 237.882083 41.4652686"></polygon>
                        <polygon id="path57802" fill="#878787" fill-rule="nonzero" points="243.950777 42.9555874 242.432627 42.9555874 242.432627 41.4652686 243.950777 41.4652686"></polygon>
                        <polygon id="path57804" fill="#878787" fill-rule="nonzero" points="237.882083 48.9168646 236.363932 48.9168646 236.363932 47.4265458 237.882083 47.4265458"></polygon>
                        <polygon id="path57806" fill="#878787" fill-rule="nonzero" points="243.950777 48.9168646 242.432627 48.9168646 242.432627 47.4265458 243.950777 47.4265458"></polygon>
                        <polygon id="path57808" fill="#878787" fill-rule="nonzero" points="237.882083 54.8743207 236.363932 54.8743207 236.363932 53.3840009 237.882083 53.3840009"></polygon>
                        <polygon id="path57810" fill="#878787" fill-rule="nonzero" points="243.950777 54.8743207 242.432627 54.8743207 242.432627 53.3840009 243.950777 53.3840009"></polygon>
                        <polygon id="path57812" fill="#878787" fill-rule="nonzero" points="237.882083 60.8355978 236.363932 60.8355978 236.363932 59.345278 237.882083 59.345278"></polygon>
                        <polygon id="path57814" fill="#878787" fill-rule="nonzero" points="243.950777 60.8355978 242.432627 60.8355978 242.432627 59.345278 243.950777 59.345278"></polygon>
                        <polygon id="path57816" fill="#878787" fill-rule="nonzero" points="237.882083 66.7930539 236.363932 66.7930539 236.363932 65.3027341 237.882083 65.3027341"></polygon>
                        <polygon id="path57818" fill="#878787" fill-rule="nonzero" points="243.950777 66.7930539 242.432627 66.7930539 242.432627 65.3027341 243.950777 65.3027341"></polygon>
                        <path d="M230.59886,83.5534135 L249.71585,83.5534135" id="path57820" stroke="#303030" stroke-width="2" stroke-linecap="round" stroke-linejoin="round"></path>
                    </g>
                </g>
                <g transform="translate(576.000000, 0.000000)">
                    <g>
                        <polygon id="path57596" fill="#212121" fill-rule="nonzero" points="0 89.8891816 287 89.8891816 287 0.492951522 0 0.492951522"></polygon>
                        <path d="M15.021878,54.1291608 L287,54.1291608" id="path57598" stroke="#2E2E2E" stroke-width="14"></path>
                        <path d="M15.021878,24.330418 L287,24.330418" id="path57600" stroke="#2E2E2E" stroke-width="2.53800011"></path>
                        <path d="M15.021878,30.2916952 L287,30.2916952" id="path57602" stroke="#2E2E2E" stroke-width="2.53800011"></path>
                        <path d="M15.021878,36.2529724 L287,36.2529724" id="path57604" stroke="#2E2E2E" stroke-width="2.53800011"></path>
                        <path d="M15.021878,42.2104275 L287,42.2104275" id="path57606" stroke="#2E2E2E" stroke-width="2.53800011"></path>
                        <path d="M15.021878,66.0517151 L287,66.0517151" id="path57608" stroke="#2E2E2E" stroke-width="2.53800011"></path>
                        <path d="M102.447729,78.8226055 C102.447729,81.9637396 99.8552025,84.5087468 96.6554096,84.5087468 C93.4595131,84.5087468 90.8669843,81.9637396 90.8669843,78.8226055 C90.8669843,75.6852926 93.4595131,73.1402853 96.6554096,73.1402853 C99.8552025,73.1402853 102.447729,75.6852926 102.447729,78.8226055" id="path57610" fill="#424242" fill-rule="nonzero"></path>
                        <polygon id="path57614" fill="#212121" fill-rule="nonzero" points="97.3171658 82.2388754 95.9975448 82.2388754 95.9975448 75.4101567 97.3171658 75.4101567"></polygon>
                        <polygon id="path57616" fill="#212121" fill-rule="nonzero" points="100.135476 79.4684103 93.1792397 79.4684103 93.1792397 78.1767998 100.135476 78.1767998"></polygon>
                        <path d="M102.447729,11.5557065 C102.447729,14.6968415 99.8552025,17.2418478 96.6554096,17.2418478 C93.4595131,17.2418478 90.8669843,14.6968415 90.8669843,11.5557065 C90.8669843,8.41839359 93.4595131,5.8733863 96.6554096,5.8733863 C99.8552025,5.8733863 102.447729,8.41839359 102.447729,11.5557065" id="path57618" fill="#424242" fill-rule="nonzero"></path>
                        <polygon id="path57622" fill="#212121" fill-rule="nonzero" points="97.3171658 14.9719774 95.9975448 14.9719774 95.9975448 8.14325772 97.3171658 8.14325772"></polygon>
                        <polygon id="path57624" fill="#212121" fill-rule="nonzero" points="100.135476 12.2053324 93.1792397 12.2053324 93.1792397 10.9099017 100.135476 10.9099017"></polygon>
                        <polygon id="path57626" fill="#0F0F0F" fill-rule="nonzero" points="0.517727073 77.9207713 20.5962052 77.9207713 20.5962052 12.4575408 0.517727073 12.4575408"></polygon>
                        <polygon id="path57628" fill="#303030" fill-rule="nonzero" points="18.3267687 75.2229108 2.78716363 75.2229108 2.78716363 15.1554013 18.3267687 15.1554013"></polygon>
                        <polygon id="path57630" fill="#878787" fill-rule="nonzero" points="8.27974472 25.075577 6.76159643 25.075577 6.76159643 23.5852582 8.27974472 23.5852582"></polygon>
                        <polygon id="path57632" fill="#878787" fill-rule="nonzero" points="14.3523359 25.075577 12.8341876 25.075577 12.8341876 23.5852582 14.3523359 23.5852582"></polygon>
                        <polygon id="path57634" fill="#878787" fill-rule="nonzero" points="8.27974472 31.0368541 6.76159643 31.0368541 6.76159643 29.5465353 8.27974472 29.5465353"></polygon>
                        <polygon id="path57636" fill="#878787" fill-rule="nonzero" points="14.3523359 31.0368541 12.8341876 31.0368541 12.8341876 29.5465353 14.3523359 29.5465353"></polygon>
                        <polygon id="path57638" fill="#878787" fill-rule="nonzero" points="8.27974472 36.9943102 6.76159643 36.9943102 6.76159643 35.5078125 8.27974472 35.5078125"></polygon>
                        <polygon id="path57640" fill="#878787" fill-rule="nonzero" points="14.3523359 36.9943102 12.8341876 36.9943102 12.8341876 35.5078125 14.3523359 35.5078125"></polygon>
                        <polygon id="path57642" fill="#878787" fill-rule="nonzero" points="8.27974472 42.9555874 6.76159643 42.9555874 6.76159643 41.4652686 8.27974472 41.4652686"></polygon>
                        <polygon id="path57644" fill="#878787" fill-rule="nonzero" points="14.3523359 42.9555874 12.8341876 42.9555874 12.8341876 41.4652686 14.3523359 41.4652686"></polygon>
                        <polygon id="path57646" fill="#878787" fill-rule="nonzero" points="8.27974472 48.9168646 6.76159643 48.9168646 6.76159643 47.4265458 8.27974472 47.4265458"></polygon>
                        <polygon id="path57648" fill="#878787" fill-rule="nonzero" points="14.3523359 48.9168646 12.8341876 48.9168646 12.8341876 47.4265458 14.3523359 47.4265458"></polygon>
                        <polygon id="path57650" fill="#878787" fill-rule="nonzero" points="8.27974472 54.8743207 6.76159643 54.8743207 6.76159643 53.3840009 8.27974472 53.3840009"></polygon>
                        <polygon id="path57652" fill="#878787" fill-rule="nonzero" points="14.3523359 54.8743207 12.8341876 54.8743207 12.8341876 53.3840009 14.3523359 53.3840009"></polygon>
                        <polygon id="path57654" fill="#878787" fill-rule="nonzero" points="8.27974472 60.8355978 6.76159643 60.8355978 6.76159643 59.345278 8.27974472 59.345278"></polygon>
                        <polygon id="path57656" fill="#878787" fill-rule="nonzero" points="14.3523359 60.8355978 12.8341876 60.8355978 12.8341876 59.345278 14.3523359 59.345278"></polygon>
                        <polygon id="path57658" fill="#878787" fill-rule="nonzero" points="8.27974472 66.7930539 6.76159643 66.7930539 6.76159643 65.3027341 8.27974472 65.3027341"></polygon>
                        <polygon id="path57660" fill="#878787" fill-rule="nonzero" points="14.3523359 66.7930539 12.8341876 66.7930539 12.8341876 65.3027341 14.3523359 65.3027341"></polygon>
                        <path d="M0.996527778,83.5534135 L20.1174045,83.5534135" id="path57662" stroke="#303030" stroke-width="2" stroke-linecap="round" stroke-linejoin="round"></path>
                        <path d="M0,0.492951766 L287,0.492951766" id="path57664" stroke="#3F3F3F" stroke-width="0.84600002"></path>
                        <path d="M0,89.8853596 L287,89.8853596" id="path57666" stroke="#0F0F0F" stroke-width="0.84600002"></path>
                        <polygon id="path57670" fill="#0F0F0F" fill-rule="nonzero" points="77.9977618 77.9207713 57.9192846 77.9207713 57.9192846 12.4613618 77.9977618 12.4613618"></polygon>
                        <polygon id="path57672" fill="#303030" fill-rule="nonzero" points="75.7283262 75.2229108 60.1848278 75.2229108 60.1848278 15.1554013 75.7283262 15.1554013"></polygon>
                        <polygon id="path57674" fill="#878787" fill-rule="nonzero" points="65.6813013 25.075577 64.163154 25.075577 64.163154 23.5852582 65.6813013 23.5852582"></polygon>
                        <polygon id="path57676" fill="#878787" fill-rule="nonzero" points="71.75 25.075577 70.2318517 25.075577 70.2318517 23.5852582 71.75 23.5852582"></polygon>
                        <polygon id="path57678" fill="#878787" fill-rule="nonzero" points="65.6813013 31.0368541 64.163154 31.0368541 64.163154 29.5465353 65.6813013 29.5465353"></polygon>
                        <polygon id="path57680" fill="#878787" fill-rule="nonzero" points="71.75 31.0368541 70.2318517 31.0368541 70.2318517 29.5465353 71.75 29.5465353"></polygon>
                        <polygon id="path57682" fill="#878787" fill-rule="nonzero" points="65.6813013 36.9943102 64.163154 36.9943102 64.163154 35.5078125 65.6813013 35.5078125"></polygon>
                        <polygon id="path57684" fill="#878787" fill-rule="nonzero" points="71.75 36.9943102 70.2318517 36.9943102 70.2318517 35.5078125 71.75 35.5078125"></polygon>
                        <polygon id="path57686" fill="#878787" fill-rule="nonzero" points="65.6813013 42.9555874 64.163154 42.9555874 64.163154 41.4652686 65.6813013 41.4652686"></polygon>
                        <polygon id="path57688" fill="#878787" fill-rule="nonzero" points="71.75 42.9555874 70.2318517 42.9555874 70.2318517 41.4652686 71.75 41.4652686"></polygon>
                        <polygon id="path57690" fill="#878787" fill-rule="nonzero" points="65.6813013 48.9168646 64.163154 48.9168646 64.163154 47.4265458 65.6813013 47.4265458"></polygon>
                        <polygon id="path57692" fill="#878787" fill-rule="nonzero" points="71.75 48.9168646 70.2318517 48.9168646 70.2318517 47.4265458 71.75 47.4265458"></polygon>
                        <polygon id="path57694" fill="#878787" fill-rule="nonzero" points="65.6813013 54.8743207 64.163154 54.8743207 64.163154 53.3840009 65.6813013 53.3840009"></polygon>
                        <polygon id="path57696" fill="#878787" fill-rule="nonzero" points="71.75 54.8743207 70.2318517 54.8743207 70.2318517 53.3840009 71.75 53.3840009"></polygon>
                        <polygon id="path57698" fill="#878787" fill-rule="nonzero" points="65.6813013 60.8355978 64.163154 60.8355978 64.163154 59.345278 65.6813013 59.345278"></polygon>
                        <polygon id="path57700" fill="#878787" fill-rule="nonzero" points="71.75 60.8355978 70.2318517 60.8355978 70.2318517 59.345278 71.75 59.345278"></polygon>
                        <polygon id="path57702" fill="#878787" fill-rule="nonzero" points="65.6813013 66.7930539 64.163154 66.7930539 64.163154 65.3027341 65.6813013 65.3027341"></polygon>
                        <polygon id="path57704" fill="#878787" fill-rule="nonzero" points="71.75 66.7930539 70.2318517 66.7930539 70.2318517 65.3027341 71.75 65.3027341"></polygon>
                        <path d="M58.3980844,83.5534135 L77.5150687,83.5534135" id="path57706" stroke="#303030" stroke-width="2" stroke-linecap="round" stroke-linejoin="round"></path>
                        <polygon id="path57708" fill="#0F0F0F" fill-rule="nonzero" points="135.395429 77.9207713 115.320845 77.9207713 115.320845 12.4613618 135.395429 12.4613618"></polygon>
                        <polygon id="path57710" fill="#303030" fill-rule="nonzero" points="133.129883 75.2229108 117.586381 75.2229108 117.586381 15.1554013 133.129883 15.1554013"></polygon>
                        <polygon id="path57712" fill="#878787" fill-rule="nonzero" points="123.078963 25.075577 121.560823 25.075577 121.560823 23.5852582 123.078963 23.5852582"></polygon>
                        <polygon id="path57714" fill="#878787" fill-rule="nonzero" points="129.151555 25.075577 127.633404 25.075577 127.633404 23.5852582 129.151555 23.5852582"></polygon>
                        <polygon id="path57716" fill="#878787" fill-rule="nonzero" points="123.078963 31.0368541 121.560823 31.0368541 121.560823 29.5465353 123.078963 29.5465353"></polygon>
                        <polygon id="path57718" fill="#878787" fill-rule="nonzero" points="129.151555 31.0368541 127.633404 31.0368541 127.633404 29.5465353 129.151555 29.5465353"></polygon>
                        <polygon id="path57720" fill="#878787" fill-rule="nonzero" points="123.078963 36.9943102 121.560823 36.9943102 121.560823 35.5078125 123.078963 35.5078125"></polygon>
                        <polygon id="path57722" fill="#878787" fill-rule="nonzero" points="129.151555 36.9943102 127.633404 36.9943102 127.633404 35.5078125 129.151555 35.5078125"></polygon>
                        <polygon id="path57724" fill="#878787" fill-rule="nonzero" points="123.078963 42.9555874 121.560823 42.9555874 121.560823 41.4652686 123.078963 41.4652686"></polygon>
                        <polygon id="path57726" fill="#878787" fill-rule="nonzero" points="129.151555 42.9555874 127.633404 42.9555874 127.633404 41.4652686 129.151555 41.4652686"></polygon>
                        <polygon id="path57728" fill="#878787" fill-rule="nonzero" points="123.078963 48.9168646 121.560823 48.9168646 121.560823 47.4265458 123.078963 47.4265458"></polygon>
                        <polygon id="path57730" fill="#878787" fill-rule="nonzero" points="129.151555 48.9168646 127.633404 48.9168646 127.633404 47.4265458 129.151555 47.4265458"></polygon>
                        <polygon id="path57732" fill="#878787" fill-rule="nonzero" points="123.078963 54.8743207 121.560823 54.8743207 121.560823 53.3840009 123.078963 53.3840009"></polygon>
                        <polygon id="path57734" fill="#878787" fill-rule="nonzero" points="129.151555 54.8743207 127.633404 54.8743207 127.633404 53.3840009 129.151555 53.3840009"></polygon>
                        <polygon id="path57736" fill="#878787" fill-rule="nonzero" points="123.078963 60.8355978 121.560823 60.8355978 121.560823 59.345278 123.078963 59.345278"></polygon>
                        <polygon id="path57738" fill="#878787" fill-rule="nonzero" points="129.151555 60.8355978 127.633404 60.8355978 127.633404 59.345278 129.151555 59.345278"></polygon>
                        <polygon id="path57740" fill="#878787" fill-rule="nonzero" points="123.078963 66.7930539 121.560823 66.7930539 121.560823 65.3027341 123.078963 65.3027341"></polygon>
                        <polygon id="path57742" fill="#878787" fill-rule="nonzero" points="129.151555 66.7930539 127.633404 66.7930539 127.633404 65.3027341 129.151555 65.3027341"></polygon>
                        <path d="M115.79575,83.5534135 L134.916627,83.5534135" id="path57744" stroke="#303030" stroke-width="2" stroke-linecap="round" stroke-linejoin="round"></path>
                        <polygon id="path57746" fill="#0F0F0F" fill-rule="nonzero" points="192.796984 77.9207713 172.718503 77.9207713 172.718503 12.4613618 192.796984 12.4613618"></polygon>
                        <polygon id="path57748" fill="#303030" fill-rule="nonzero" points="190.527551 75.2229108 174.987946 75.2229108 174.987946 15.1554013 190.527551 15.1554013"></polygon>
                        <polygon id="path57750" fill="#878787" fill-rule="nonzero" points="180.480518 25.075577 178.962378 25.075577 178.962378 23.5852582 180.480518 23.5852582"></polygon>
                        <polygon id="path57752" fill="#878787" fill-rule="nonzero" points="186.549223 25.075577 185.034969 25.075577 185.034969 23.5852582 186.549223 23.5852582"></polygon>
                        <polygon id="path57754" fill="#878787" fill-rule="nonzero" points="180.480518 31.0368541 178.962378 31.0368541 178.962378 29.5465353 180.480518 29.5465353"></polygon>
                        <polygon id="path57756" fill="#878787" fill-rule="nonzero" points="186.549223 31.0368541 185.034969 31.0368541 185.034969 29.5465353 186.549223 29.5465353"></polygon>
                        <polygon id="path57758" fill="#878787" fill-rule="nonzero" points="180.480518 36.9943102 178.962378 36.9943102 178.962378 35.5078125 180.480518 35.5078125"></polygon>
                        <polygon id="path57760" fill="#878787" fill-rule="nonzero" points="186.549223 36.9943102 185.034969 36.9943102 185.034969 35.5078125 186.549223 35.5078125"></polygon>
                        <polygon id="path57762" fill="#878787" fill-rule="nonzero" points="180.480518 42.9555874 178.962378 42.9555874 178.962378 41.4652686 180.480518 41.4652686"></polygon>
                        <polygon id="path57764" fill="#878787" fill-rule="nonzero" points="186.549223 42.9555874 185.034969 42.9555874 185.034969 41.4652686 186.549223 41.4652686"></polygon>
                        <polygon id="path57766" fill="#878787" fill-rule="nonzero" points="180.480518 48.9168646 178.962378 48.9168646 178.962378 47.4265458 180.480518 47.4265458"></polygon>
                        <polygon id="path57768" fill="#878787" fill-rule="nonzero" points="186.549223 48.9168646 185.034969 48.9168646 185.034969 47.4265458 186.549223 47.4265458"></polygon>
                        <polygon id="path57770" fill="#878787" fill-rule="nonzero" points="180.480518 54.8743207 178.962378 54.8743207 178.962378 53.3840009 180.480518 53.3840009"></polygon>
                        <polygon id="path57772" fill="#878787" fill-rule="nonzero" points="186.549223 54.8743207 185.034969 54.8743207 185.034969 53.3840009 186.549223 53.3840009"></polygon>
                        <polygon id="path57774" fill="#878787" fill-rule="nonzero" points="180.480518 60.8355978 178.962378 60.8355978 178.962378 59.345278 180.480518 59.345278"></polygon>
                        <polygon id="path57776" fill="#878787" fill-rule="nonzero" points="186.549223 60.8355978 185.034969 60.8355978 185.034969 59.345278 186.549223 59.345278"></polygon>
                        <polygon id="path57778" fill="#878787" fill-rule="nonzero" points="180.480518 66.7930539 178.962378 66.7930539 178.962378 65.3027341 180.480518 65.3027341"></polygon>
                        <polygon id="path57780" fill="#878787" fill-rule="nonzero" points="186.549223 66.7930539 185.034969 66.7930539 185.034969 65.3027341 186.549223 65.3027341"></polygon>
                        <path d="M173.197305,83.5534135 L192.318182,83.5534135" id="path57782" stroke="#303030" stroke-width="2" stroke-linecap="round" stroke-linejoin="round"></path>
                        <polygon id="path57784" fill="#0F0F0F" fill-rule="nonzero" points="250.194652 77.9207713 230.120058 77.9207713 230.120058 12.4613618 250.194652 12.4613618"></polygon>
                        <polygon id="path57786" fill="#303030" fill-rule="nonzero" points="247.929106 75.2229108 232.385604 75.2229108 232.385604 15.1554013 247.929106 15.1554013"></polygon>
                        <polygon id="path57788" fill="#878787" fill-rule="nonzero" points="237.882083 25.075577 236.363932 25.075577 236.363932 23.5852582 237.882083 23.5852582"></polygon>
                        <polygon id="path57790" fill="#878787" fill-rule="nonzero" points="243.950777 25.075577 242.432627 25.075577 242.432627 23.5852582 243.950777 23.5852582"></polygon>
                        <polygon id="path57792" fill="#878787" fill-rule="nonzero" points="237.882083 31.0368541 236.363932 31.0368541 236.363932 29.5465353 237.882083 29.5465353"></polygon>
                        <polygon id="path57794" fill="#878787" fill-rule="nonzero" points="243.950777 31.0368541 242.432627 31.0368541 242.432627 29.5465353 243.950777 29.5465353"></polygon>
                        <polygon id="path57796" fill="#878787" fill-rule="nonzero" points="237.882083 36.9943102 236.363932 36.9943102 236.363932 35.5078125 237.882083 35.5078125"></polygon>
                        <polygon id="path57798" fill="#878787" fill-rule="nonzero" points="243.950777 36.9943102 242.432627 36.9943102 242.432627 35.5078125 243.950777 35.5078125"></polygon>
                        <polygon id="path57800" fill="#878787" fill-rule="nonzero" points="237.882083 42.9555874 236.363932 42.9555874 236.363932 41.4652686 237.882083 41.4652686"></polygon>
                        <polygon id="path57802" fill="#878787" fill-rule="nonzero" points="243.950777 42.9555874 242.432627 42.9555874 242.432627 41.4652686 243.950777 41.4652686"></polygon>
                        <polygon id="path57804" fill="#878787" fill-rule="nonzero" points="237.882083 48.9168646 236.363932 48.9168646 236.363932 47.4265458 237.882083 47.4265458"></polygon>
                        <polygon id="path57806" fill="#878787" fill-rule="nonzero" points="243.950777 48.9168646 242.432627 48.9168646 242.432627 47.4265458 243.950777 47.4265458"></polygon>
                        <polygon id="path57808" fill="#878787" fill-rule="nonzero" points="237.882083 54.8743207 236.363932 54.8743207 236.363932 53.3840009 237.882083 53.3840009"></polygon>
                        <polygon id="path57810" fill="#878787" fill-rule="nonzero" points="243.950777 54.8743207 242.432627 54.8743207 242.432627 53.3840009 243.950777 53.3840009"></polygon>
                        <polygon id="path57812" fill="#878787" fill-rule="nonzero" points="237.882083 60.8355978 236.363932 60.8355978 236.363932 59.345278 237.882083 59.345278"></polygon>
                        <polygon id="path57814" fill="#878787" fill-rule="nonzero" points="243.950777 60.8355978 242.432627 60.8355978 242.432627 59.345278 243.950777 59.345278"></polygon>
                        <polygon id="path57816" fill="#878787" fill-rule="nonzero" points="237.882083 66.7930539 236.363932 66.7930539 236.363932 65.3027341 237.882083 65.3027341"></polygon>
                        <polygon id="path57818" fill="#878787" fill-rule="nonzero" points="243.950777 66.7930539 242.432627 66.7930539 242.432627 65.3027341 243.950777 65.3027341"></polygon>
                        <path d="M230.59886,83.5534135 L249.71585,83.5534135" id="path57820" stroke="#303030" stroke-width="2" stroke-linecap="round" stroke-linejoin="round"></path>
                    </g>
                </g>
            </g>
        </g>
        <path d="M0,15 L0,0 L750,0 L765,0 L765,15 L750,15 L0,15 Z M352.5,2.5 C349.738576,2.5 347.5,4.73857625 347.5,7.5 C347.5,10.2614237 349.738576,12.5 352.5,12.5 C355.261424,12.5 357.5,10.2614237 357.5,7.5 C357.5,4.73857625 355.261424,2.5 352.5,2.5 Z M367.5,2.5 C364.738576,2.5 362.5,4.73857625 362.5,7.5 C362.5,10.2614237 364.738576,12.5 367.5,12.5 C370.261424,12.5 372.5,10.2614237 372.5,7.5 C372.5,4.73857625 370.261424,2.5 367.5,2.5 Z M382.5,2.5 C379.738576,2.5 377.5,4.73857625 377.5,7.5 C377.5,10.2614237 379.738576,12.5 382.5,12.5 C385.261424,12.5 387.5,10.2614237 387.5,7.5 C387.5,4.73857625 385.261424,2.5 382.5,2.5 Z M397.5,2.5 C394.738576,2.5 392.5,4.73857625 392.5,7.5 C392.5,10.2614237 394.738576,12.5 397.5,12.5 C400.261424,12.5 402.5,10.2614237 402.5,7.5 C402.5,4.73857625 400.261424,2.5 397.5,2.5 Z M412.5,2.5 C409.738576,2.5 407.5,4.73857625 407.5,7.5 C407.5,10.2614237 409.738576,12.5 412.5,12.5 C415.261424,12.5 417.5,10.2614237 417.5,7.5 C417.5,4.73857625 415.261424,2.5 412.5,2.5 Z M7.5,2.5 C4.73857625,2.5 2.5,4.73857625 2.5,7.5 C2.5,10.2614237 4.73857625,12.5 7.5,12.5 C10.2614237,12.5 12.5,10.2614237 12.5,7.5 C12.5,4.73857625 10.2614237,2.5 7.5,2.5 Z M427.5,2.5 C424.738576,2.5 422.5,4.73857625 422.5,7.5 C422.5,10.2614237 424.738576,12.5 427.5,12.5 C430.261424,12.5 432.5,10.2614237 432.5,7.5 C432.5,4.73857625 430.261424,2.5 427.5,2.5 Z M22.5,2.5 C19.7385763,2.5 17.5,4.73857625 17.5,7.5 C17.5,10.2614237 19.7385763,12.5 22.5,12.5 C25.2614237,12.5 27.5,10.2614237 27.5,7.5 C27.5,4.73857625 25.2614237,2.5 22.5,2.5 Z M442.5,2.5 C439.738576,2.5 437.5,4.73857625 437.5,7.5 C437.5,10.2614237 439.738576,12.5 442.5,12.5 C445.261424,12.5 447.5,10.2614237 447.5,7.5 C447.5,4.73857625 445.261424,2.5 442.5,2.5 Z M37.5,2.5 C34.7385763,2.5 32.5,4.73857625 32.5,7.5 C32.5,10.2614237 34.7385763,12.5 37.5,12.5 C40.2614237,12.5 42.5,10.2614237 42.5,7.5 C42.5,4.73857625 40.2614237,2.5 37.5,2.5 Z M457.5,2.5 C454.738576,2.5 452.5,4.73857625 452.5,7.5 C452.5,10.2614237 454.738576,12.5 457.5,12.5 C460.261424,12.5 462.5,10.2614237 462.5,7.5 C462.5,4.73857625 460.261424,2.5 457.5,2.5 Z M52.5,2.5 C49.7385763,2.5 47.5,4.73857625 47.5,7.5 C47.5,10.2614237 49.7385763,12.5 52.5,12.5 C55.2614237,12.5 57.5,10.2614237 57.5,7.5 C57.5,4.73857625 55.2614237,2.5 52.5,2.5 Z M472.5,2.5 C469.738576,2.5 467.5,4.73857625 467.5,7.5 C467.5,10.2614237 469.738576,12.5 472.5,12.5 C475.261424,12.5 477.5,10.2614237 477.5,7.5 C477.5,4.73857625 475.261424,2.5 472.5,2.5 Z M67.5,2.5 C64.7385763,2.5 62.5,4.73857625 62.5,7.5 C62.5,10.2614237 64.7385763,12.5 67.5,12.5 C70.2614237,12.5 72.5,10.2614237 72.5,7.5 C72.5,4.73857625 70.2614237,2.5 67.5,2.5 Z M487.5,2.5 C484.738576,2.5 482.5,4.73857625 482.5,7.5 C482.5,10.2614237 484.738576,12.5 487.5,12.5 C490.261424,12.5 492.5,10.2614237 492.5,7.5 C492.5,4.73857625 490.261424,2.5 487.5,2.5 Z M82.5,2.5 C79.7385763,2.5 77.5,4.73857625 77.5,7.5 C77.5,10.2614237 79.7385763,12.5 82.5,12.5 C85.2614237,12.5 87.5,10.2614237 87.5,7.5 C87.5,4.73857625 85.2614237,2.5 82.5,2.5 Z M502.5,2.5 C499.738576,2.5 497.5,4.73857625 497.5,7.5 C497.5,10.2614237 499.738576,12.5 502.5,12.5 C505.261424,12.5 507.5,10.2614237 507.5,7.5 C507.5,4.73857625 505.261424,2.5 502.5,2.5 Z M97.5,2.5 C94.7385763,2.5 92.5,4.73857625 92.5,7.5 C92.5,10.2614237 94.7385763,12.5 97.5,12.5 C100.261424,12.5 102.5,10.2614237 102.5,7.5 C102.5,4.73857625 100.261424,2.5 97.5,2.5 Z M517.5,2.5 C514.738576,2.5 512.5,4.73857625 512.5,7.5 C512.5,10.2614237 514.738576,12.5 517.5,12.5 C520.261424,12.5 522.5,10.2614237 522.5,7.5 C522.5,4.73857625 520.261424,2.5 517.5,2.5 Z M112.5,2.5 C109.738576,2.5 107.5,4.73857625 107.5,7.5 C107.5,10.2614237 109.738576,12.5 112.5,12.5 C115.261424,12.5 117.5,10.2614237 117.5,7.5 C117.5,4.73857625 115.261424,2.5 112.5,2.5 Z M532.5,2.5 C529.738576,2.5 527.5,4.73857625 527.5,7.5 C527.5,10.2614237 529.738576,12.5 532.5,12.5 C535.261424,12.5 537.5,10.2614237 537.5,7.5 C537.5,4.73857625 535.261424,2.5 532.5,2.5 Z M127.5,2.5 C124.738576,2.5 122.5,4.73857625 122.5,7.5 C122.5,10.2614237 124.738576,12.5 127.5,12.5 C130.261424,12.5 132.5,10.2614237 132.5,7.5 C132.5,4.73857625 130.261424,2.5 127.5,2.5 Z M547.5,2.5 C544.738576,2.5 542.5,4.73857625 542.5,7.5 C542.5,10.2614237 544.738576,12.5 547.5,12.5 C550.261424,12.5 552.5,10.2614237 552.5,7.5 C552.5,4.73857625 550.261424,2.5 547.5,2.5 Z M142.5,2.5 C139.738576,2.5 137.5,4.73857625 137.5,7.5 C137.5,10.2614237 139.738576,12.5 142.5,12.5 C145.261424,12.5 147.5,10.2614237 147.5,7.5 C147.5,4.73857625 145.261424,2.5 142.5,2.5 Z M562.5,2.5 C559.738576,2.5 557.5,4.73857625 557.5,7.5 C557.5,10.2614237 559.738576,12.5 562.5,12.5 C565.261424,12.5 567.5,10.2614237 567.5,7.5 C567.5,4.73857625 565.261424,2.5 562.5,2.5 Z M157.5,2.5 C154.738576,2.5 152.5,4.73857625 152.5,7.5 C152.5,10.2614237 154.738576,12.5 157.5,12.5 C160.261424,12.5 162.5,10.2614237 162.5,7.5 C162.5,4.73857625 160.261424,2.5 157.5,2.5 Z M577.5,2.5 C574.738576,2.5 572.5,4.73857625 572.5,7.5 C572.5,10.2614237 574.738576,12.5 577.5,12.5 C580.261424,12.5 582.5,10.2614237 582.5,7.5 C582.5,4.73857625 580.261424,2.5 577.5,2.5 Z M172.5,2.5 C169.738576,2.5 167.5,4.73857625 167.5,7.5 C167.5,10.2614237 169.738576,12.5 172.5,12.5 C175.261424,12.5 177.5,10.2614237 177.5,7.5 C177.5,4.73857625 175.261424,2.5 172.5,2.5 Z M592.5,2.5 C589.738576,2.5 587.5,4.73857625 587.5,7.5 C587.5,10.2614237 589.738576,12.5 592.5,12.5 C595.261424,12.5 597.5,10.2614237 597.5,7.5 C597.5,4.73857625 595.261424,2.5 592.5,2.5 Z M187.5,2.5 C184.738576,2.5 182.5,4.73857625 182.5,7.5 C182.5,10.2614237 184.738576,12.5 187.5,12.5 C190.261424,12.5 192.5,10.2614237 192.5,7.5 C192.5,4.73857625 190.261424,2.5 187.5,2.5 Z M607.5,2.5 C604.738576,2.5 602.5,4.73857625 602.5,7.5 C602.5,10.2614237 604.738576,12.5 607.5,12.5 C610.261424,12.5 612.5,10.2614237 612.5,7.5 C612.5,4.73857625 610.261424,2.5 607.5,2.5 Z M202.5,2.5 C199.738576,2.5 197.5,4.73857625 197.5,7.5 C197.5,10.2614237 199.738576,12.5 202.5,12.5 C205.261424,12.5 207.5,10.2614237 207.5,7.5 C207.5,4.73857625 205.261424,2.5 202.5,2.5 Z M622.5,2.5 C619.738576,2.5 617.5,4.73857625 617.5,7.5 C617.5,10.2614237 619.738576,12.5 622.5,12.5 C625.261424,12.5 627.5,10.2614237 627.5,7.5 C627.5,4.73857625 625.261424,2.5 622.5,2.5 Z M217.5,2.5 C214.738576,2.5 212.5,4.73857625 212.5,7.5 C212.5,10.2614237 214.738576,12.5 217.5,12.5 C220.261424,12.5 222.5,10.2614237 222.5,7.5 C222.5,4.73857625 220.261424,2.5 217.5,2.5 Z M637.5,2.5 C634.738576,2.5 632.5,4.73857625 632.5,7.5 C632.5,10.2614237 634.738576,12.5 637.5,12.5 C640.261424,12.5 642.5,10.2614237 642.5,7.5 C642.5,4.73857625 640.261424,2.5 637.5,2.5 Z M232.5,2.5 C229.738576,2.5 227.5,4.73857625 227.5,7.5 C227.5,10.2614237 229.738576,12.5 232.5,12.5 C235.261424,12.5 237.5,10.2614237 237.5,7.5 C237.5,4.73857625 235.261424,2.5 232.5,2.5 Z M652.5,2.5 C649.738576,2.5 647.5,4.73857625 647.5,7.5 C647.5,10.2614237 649.738576,12.5 652.5,12.5 C655.261424,12.5 657.5,10.2614237 657.5,7.5 C657.5,4.73857625 655.261424,2.5 652.5,2.5 Z M247.5,2.5 C244.738576,2.5 242.5,4.73857625 242.5,7.5 C242.5,10.2614237 244.738576,12.5 247.5,12.5 C250.261424,12.5 252.5,10.2614237 252.5,7.5 C252.5,4.73857625 250.261424,2.5 247.5,2.5 Z M667.5,2.5 C664.738576,2.5 662.5,4.73857625 662.5,7.5 C662.5,10.2614237 664.738576,12.5 667.5,12.5 C670.261424,12.5 672.5,10.2614237 672.5,7.5 C672.5,4.73857625 670.261424,2.5 667.5,2.5 Z M262.5,2.5 C259.738576,2.5 257.5,4.73857625 257.5,7.5 C257.5,10.2614237 259.738576,12.5 262.5,12.5 C265.261424,12.5 267.5,10.2614237 267.5,7.5 C267.5,4.73857625 265.261424,2.5 262.5,2.5 Z M682.5,2.5 C679.738576,2.5 677.5,4.73857625 677.5,7.5 C677.5,10.2614237 679.738576,12.5 682.5,12.5 C685.261424,12.5 687.5,10.2614237 687.5,7.5 C687.5,4.73857625 685.261424,2.5 682.5,2.5 Z M277.5,2.5 C274.738576,2.5 272.5,4.73857625 272.5,7.5 C272.5,10.2614237 274.738576,12.5 277.5,12.5 C280.261424,12.5 282.5,10.2614237 282.5,7.5 C282.5,4.73857625 280.261424,2.5 277.5,2.5 Z M697.5,2.5 C694.738576,2.5 692.5,4.73857625 692.5,7.5 C692.5,10.2614237 694.738576,12.5 697.5,12.5 C700.261424,12.5 702.5,10.2614237 702.5,7.5 C702.5,4.73857625 700.261424,2.5 697.5,2.5 Z M292.5,2.5 C289.738576,2.5 287.5,4.73857625 287.5,7.5 C287.5,10.2614237 289.738576,12.5 292.5,12.5 C295.261424,12.5 297.5,10.2614237 297.5,7.5 C297.5,4.73857625 295.261424,2.5 292.5,2.5 Z M712.5,2.5 C709.738576,2.5 707.5,4.73857625 707.5,7.5 C707.5,10.2614237 709.738576,12.5 712.5,12.5 C715.261424,12.5 717.5,10.2614237 717.5,7.5 C717.5,4.73857625 715.261424,2.5 712.5,2.5 Z M307.5,2.5 C304.738576,2.5 302.5,4.73857625 302.5,7.5 C302.5,10.2614237 304.738576,12.5 307.5,12.5 C310.261424,12.5 312.5,10.2614237 312.5,7.5 C312.5,4.73857625 310.261424,2.5 307.5,2.5 Z M727.5,2.5 C724.738576,2.5 722.5,4.73857625 722.5,7.5 C722.5,10.2614237 724.738576,12.5 727.5,12.5 C730.261424,12.5 732.5,10.2614237 732.5,7.5 C732.5,4.73857625 730.261424,2.5 727.5,2.5 Z M322.5,2.5 C319.738576,2.5 317.5,4.73857625 317.5,7.5 C317.5,10.2614237 319.738576,12.5 322.5,12.5 C325.261424,12.5 327.5,10.2614237 327.5,7.5 C327.5,4.73857625 325.261424,2.5 322.5,2.5 Z M742.5,2.5 C739.738576,2.5 737.5,4.73857625 737.5,7.5 C737.5,10.2614237 739.738576,12.5 742.5,12.5 C745.261424,12.5 747.5,10.2614237 747.5,7.5 C747.5,4.73857625 745.261424,2.5 742.5,2.5 Z M337.5,2.5 C334.738576,2.5 332.5,4.73857625 332.5,7.5 C332.5,10.2614237 334.738576,12.5 337.5,12.5 C340.261424,12.5 342.5,10.2614237 342.5,7.5 C342.5,4.73857625 340.261424,2.5 337.5,2.5 Z M757.5,2.5 C754.738576,2.5 752.5,4.73857625 752.5,7.5 C752.5,10.2614237 754.738576,12.5 757.5,12.5 C760.261424,12.5 762.5,10.2614237 762.5,7.5 C762.5,4.73857625 760.261424,2.5 757.5,2.5 Z" id="top-rail" fill="#C0C0C0" mask="url(#mask-2)"></path>
    </g>
</svg>