<?xml version="1.0" encoding="UTF-8"?>
<svg width="60px" height="384px" viewBox="0 0 60 384" version="1.1" xmlns="http://www.w3.org/2000/svg" xmlns:xlink="http://www.w3.org/1999/xlink">
    <!-- Generator: Sketch 58 (84663) - https://sketch.com -->
    <title>rack</title>
    <desc>Created with Sketch.</desc>
    <defs>
        <rect id="path-1" x="0" y="0" width="60" height="380"></rect>
    </defs>
    <g id="rack" stroke="none" stroke-width="1" fill="none" fill-rule="evenodd">
        <mask id="mask-2" fill="white">
            <use xlink:href="#path-1"></use>
        </mask>
        <use id="bg" fill="#282828" xlink:href="#path-1"></use>
        <path d="M0,380 L0,365 L45,365 L60,365 L60,380 L45,380 L0,380 Z M7.5,367.5 C4.73857625,367.5 2.5,369.738576 2.5,372.5 C2.5,375.261424 4.73857625,377.5 7.5,377.5 C10.2614237,377.5 12.5,375.261424 12.5,372.5 C12.5,369.738576 10.2614237,367.5 7.5,367.5 Z M22.5,367.5 C19.7385763,367.5 17.5,369.738576 17.5,372.5 C17.5,375.261424 19.7385763,377.5 22.5,377.5 C25.2614237,377.5 27.5,375.261424 27.5,372.5 C27.5,369.738576 25.2614237,367.5 22.5,367.5 Z M37.5,367.5 C34.7385763,367.5 32.5,369.738576 32.5,372.5 C32.5,375.261424 34.7385763,377.5 37.5,377.5 C40.2614237,377.5 42.5,375.261424 42.5,372.5 C42.5,369.738576 40.2614237,367.5 37.5,367.5 Z M52.5,367.5 C49.7385763,367.5 47.5,369.738576 47.5,372.5 C47.5,375.261424 49.7385763,377.5 52.5,377.5 C55.2614237,377.5 57.5,375.261424 57.5,372.5 C57.5,369.738576 55.2614237,367.5 52.5,367.5 Z" id="bottom-rail" fill="#B9B9B9" mask="url(#mask-2)"></path>
        <g id="Bus" mask="url(#mask-2)">
            <g transform="translate(0.000000, 147.000000)">
                <polygon id="path57596" fill="#111111" fill-rule="nonzero" points="0 89.8891816 60 89.8891816 60 0.492951522 0 0.492951522"></polygon>
                <g id="Group" stroke-width="1" fill="none" fill-rule="evenodd" transform="translate(0.517727, 12.457541)">
                    <polygon id="path57626" stroke="#4A4A4A" fill="#0F0F0F" fill-rule="nonzero" points="-2.30926389e-14 65.4632305 20.0784781 65.4632305 20.0784781 0 -2.30926389e-14 0"></polygon>
                    <polygon id="path57628" fill="#1C1C1C" fill-rule="nonzero" points="17.8090416 62.76537 2.26943656 62.76537 2.26943656 2.69786054 17.8090416 2.69786054"></polygon>
                    <path d="M7.76201764,52.8451934 L7.76201764,54.3355132 L6.24386936,54.3355132 L6.24386936,52.8451934 L7.76201764,52.8451934 Z M13.8346088,52.8451934 L13.8346088,54.3355132 L12.3164605,54.3355132 L12.3164605,52.8451934 L13.8346088,52.8451934 Z M7.76201764,46.8877373 L7.76201764,48.3780571 L6.24386936,48.3780571 L6.24386936,46.8877373 L7.76201764,46.8877373 Z M13.8346088,46.8877373 L13.8346088,48.3780571 L12.3164605,48.3780571 L12.3164605,46.8877373 L13.8346088,46.8877373 Z M7.76201764,40.9264601 L7.76201764,42.4167799 L6.24386936,42.4167799 L6.24386936,40.9264601 L7.76201764,40.9264601 Z M13.8346088,40.9264601 L13.8346088,42.4167799 L12.3164605,42.4167799 L12.3164605,40.9264601 L13.8346088,40.9264601 Z M7.76201764,34.969005 L7.76201764,36.4593238 L6.24386936,36.4593238 L6.24386936,34.969005 L7.76201764,34.969005 Z M13.8346088,34.969005 L13.8346088,36.4593238 L12.3164605,36.4593238 L12.3164605,34.969005 L13.8346088,34.969005 Z M7.76201764,29.0077278 L7.76201764,30.4980466 L6.24386936,30.4980466 L6.24386936,29.0077278 L7.76201764,29.0077278 Z M13.8346088,29.0077278 L13.8346088,30.4980466 L12.3164605,30.4980466 L12.3164605,29.0077278 L13.8346088,29.0077278 Z M7.76201764,23.0502717 L7.76201764,24.5367695 L6.24386936,24.5367695 L6.24386936,23.0502717 L7.76201764,23.0502717 Z M13.8346088,23.0502717 L13.8346088,24.5367695 L12.3164605,24.5367695 L12.3164605,23.0502717 L13.8346088,23.0502717 Z M7.76201764,17.0889946 L7.76201764,18.5793134 L6.24386936,18.5793134 L6.24386936,17.0889946 L7.76201764,17.0889946 Z M13.8346088,17.0889946 L13.8346088,18.5793134 L12.3164605,18.5793134 L12.3164605,17.0889946 L13.8346088,17.0889946 Z M7.76201764,11.1277174 L7.76201764,12.6180362 L6.24386936,12.6180362 L6.24386936,11.1277174 L7.76201764,11.1277174 Z M13.8346088,11.1277174 L13.8346088,12.6180362 L12.3164605,12.6180362 L12.3164605,11.1277174 L13.8346088,11.1277174 Z" id="Combined-Shape" fill="#A8A277" fill-rule="nonzero"></path>
                </g>
            </g>
        </g>
        <path d="M0,15 L0,0 L45,0 L60,0 L60,15 L45,15 L0,15 Z M7.5,2.5 C4.73857625,2.5 2.5,4.73857625 2.5,7.5 C2.5,10.2614237 4.73857625,12.5 7.5,12.5 C10.2614237,12.5 12.5,10.2614237 12.5,7.5 C12.5,4.73857625 10.2614237,2.5 7.5,2.5 Z M22.5,2.5 C19.7385763,2.5 17.5,4.73857625 17.5,7.5 C17.5,10.2614237 19.7385763,12.5 22.5,12.5 C25.2614237,12.5 27.5,10.2614237 27.5,7.5 C27.5,4.73857625 25.2614237,2.5 22.5,2.5 Z M37.5,2.5 C34.7385763,2.5 32.5,4.73857625 32.5,7.5 C32.5,10.2614237 34.7385763,12.5 37.5,12.5 C40.2614237,12.5 42.5,10.2614237 42.5,7.5 C42.5,4.73857625 40.2614237,2.5 37.5,2.5 Z M52.5,2.5 C49.7385763,2.5 47.5,4.73857625 47.5,7.5 C47.5,10.2614237 49.7385763,12.5 52.5,12.5 C55.2614237,12.5 57.5,10.2614237 57.5,7.5 C57.5,4.73857625 55.2614237,2.5 52.5,2.5 Z" id="top-rail" fill="#B9B9B9" mask="url(#mask-2)"></path>
    </g>
</svg>